<?xml version="1.0" standalone="no"?>
<!DOCTYPE svg PUBLIC "-//W3C//DTD SVG 20010904//EN"
 "http://www.w3.org/TR/2001/REC-SVG-20010904/DTD/svg10.dtd">
<svg version="1.0" xmlns="http://www.w3.org/2000/svg"
 width="1601.000000pt" height="1119.000000pt" viewBox="0 0 1601.000000 1119.000000"
 preserveAspectRatio="xMidYMid meet">

<g transform="translate(0.000000,1119.000000) scale(0.100000,-0.100000)"
fill="#000000" stroke="none">
<path d="M0 5595 l0 -5595 3856 0 3856 0 -26 30 c-32 39 -39 86 -34 262 3 156
10 179 65 215 23 16 52 18 203 18 151 0 180 -2 203 -18 55 -36 62 -59 65 -215
5 -176 -2 -223 -34 -262 l-26 -30 3941 0 3941 0 0 5595 0 5595 -8005 0 -8005
0 0 -5595z m3388 5313 c-3 -25 -36 -37 -48 -17 -13 20 0 39 27 39 20 0 24 -4
21 -22z m915 10 c7 -21 -4 -38 -23 -38 -23 0 -34 16 -26 35 7 18 43 20 49 3z
m-995 -20 c-3 -20 -10 -23 -55 -26 -51 -3 -53 -4 -53 -33 0 -28 1 -29 50 -29
47 0 50 -2 50 -25 0 -23 -3 -25 -50 -25 l-50 0 0 -45 c0 -43 -1 -45 -30 -45
l-30 0 0 125 0 125 86 0 c83 0 85 -1 82 -22z m1282 -103 l0 -125 -25 0 -25 0
0 125 0 125 25 0 25 0 0 -125z m269 112 c41 -21 64 -62 64 -112 0 -90 -41
-125 -148 -125 l-65 0 0 125 0 125 63 0 c34 0 73 -6 86 -13z m541 -27 c0 -38
1 -39 24 -29 34 16 70 4 84 -26 7 -14 12 -55 12 -90 l0 -65 -30 0 c-29 0 -29
0 -32 68 -3 64 -4 67 -28 67 -24 0 -25 -3 -28 -67 -3 -68 -3 -68 -32 -68 l-30
0 0 125 0 125 30 0 c28 0 30 -2 30 -40z m210 0 c0 -37 2 -40 19 -30 56 29 111
-12 111 -83 0 -75 -51 -119 -104 -91 -14 7 -26 9 -26 3 0 -5 -11 -9 -25 -9
l-25 0 0 125 0 125 25 0 c23 0 25 -4 25 -40z m880 -85 l0 -125 -30 0 c-16 0
-30 4 -30 9 0 6 -12 4 -26 -3 -72 -38 -132 60 -89 144 18 34 56 47 91 31 23
-10 24 -9 24 29 0 38 2 40 30 40 l30 0 0 -125z m-3100 -30 c0 -95 0 -95 -25
-95 -25 0 -25 0 -25 95 0 95 0 95 25 95 25 0 25 0 25 -95z m90 79 c0 -14 1
-14 16 0 20 20 53 20 82 0 20 -13 22 -24 22 -95 0 -78 0 -79 -25 -79 -24 0
-25 3 -25 54 0 69 -7 86 -35 86 -28 0 -35 -17 -35 -86 0 -51 -1 -54 -25 -54
-25 0 -25 0 -25 95 0 95 0 95 25 95 16 0 25 -6 25 -16z m307 -10 c8 -11 13
-47 13 -91 l0 -74 -32 2 c-18 1 -43 -1 -55 -5 -22 -7 -62 7 -75 28 -25 36 6
77 62 85 24 3 45 12 48 18 6 19 -27 28 -49 15 -21 -13 -59 -16 -59 -4 1 47
116 68 147 26z m103 10 c0 -14 1 -14 16 0 20 20 53 20 82 0 20 -13 22 -24 22
-95 0 -78 0 -79 -25 -79 -24 0 -25 3 -25 54 0 69 -7 86 -35 86 -28 0 -35 -17
-35 -86 0 -51 -1 -54 -25 -54 -25 0 -25 0 -25 95 0 95 0 95 25 95 16 0 25 -6
25 -16z m305 -9 c14 -13 25 -29 25 -35 0 -17 -52 -11 -66 8 -28 37 -64 -17
-50 -74 7 -28 50 -34 60 -9 6 17 24 19 44 6 20 -12 -5 -48 -42 -61 -95 -33
-169 89 -97 161 38 38 91 40 126 4z m105 -70 c0 -95 0 -95 -25 -95 -25 0 -25
0 -25 95 0 95 0 95 25 95 25 0 25 0 25 -95z m187 69 c8 -11 13 -47 13 -91 l0
-74 -32 2 c-18 1 -43 -1 -55 -5 -22 -7 -62 7 -75 28 -25 36 6 77 62 85 24 3
45 12 48 18 6 19 -27 28 -49 15 -21 -13 -59 -16 -59 -4 1 47 116 68 147 26z
m608 1 c22 -21 25 -33 25 -95 l0 -70 -47 0 c-27 -1 -58 -1 -71 -1 -32 -1 -52
19 -52 52 0 33 31 59 72 59 31 0 45 17 29 33 -9 9 -16 8 -31 -1 -23 -14 -56
-16 -65 -3 -3 5 7 19 21 30 37 29 88 27 119 -4z m195 5 c12 -12 18 -25 15 -30
-8 -13 -42 -13 -50 0 -10 16 -45 12 -45 -5 0 -8 12 -17 28 -21 54 -12 62 -16
72 -34 16 -29 -7 -68 -47 -79 -58 -16 -128 16 -107 50 7 12 44 12 44 0 0 -13
36 -20 51 -10 19 11 4 23 -48 38 -44 12 -59 35 -48 72 13 41 101 53 135 19z
m623 0 c54 -43 42 -140 -20 -166 -98 -42 -179 81 -104 157 36 35 86 39 124 9z
m214 -6 c8 -11 13 -47 13 -91 l0 -74 -32 2 c-18 1 -43 -1 -55 -5 -22 -7 -62 7
-75 28 -25 36 6 77 62 85 24 3 45 12 48 18 6 19 -27 28 -49 15 -21 -13 -59
-16 -59 -4 1 47 116 68 147 26z m103 14 c0 -9 3 -9 12 0 22 22 48 14 48 -13 0
-17 -5 -25 -18 -25 -31 0 -42 -22 -42 -82 0 -55 -1 -58 -25 -58 -25 0 -25 0
-25 95 0 95 0 95 25 95 14 0 25 -5 25 -12z m6607 -8 c55 -33 63 -61 63 -230 0
-169 -8 -197 -63 -230 -31 -19 -54 -20 -602 -20 -548 0 -571 1 -602 20 -55 33
-63 61 -63 230 0 169 8 197 63 230 31 19 54 20 602 20 548 0 571 -1 602 -20z
m2753 -20 c0 -5 -4 -10 -10 -10 -5 0 -10 5 -10 10 0 6 5 10 10 10 6 0 10 -4
10 -10z m-50 -20 c0 -5 -4 -10 -10 -10 -5 0 -10 5 -10 10 0 6 5 10 10 10 6 0
10 -4 10 -10z m100 0 c0 -5 -5 -10 -11 -10 -5 0 -7 5 -4 10 3 6 8 10 11 10 2
0 4 -4 4 -10z m-32 -22 c32 -32 -2 -79 -43 -60 -29 13 -33 46 -7 61 23 14 36
13 50 -1z m-88 -28 c0 -5 -4 -10 -10 -10 -5 0 -10 5 -10 10 0 6 5 10 10 10 6
0 10 -4 10 -10z m140 0 c0 -5 -4 -10 -10 -10 -5 0 -10 5 -10 10 0 6 5 10 10
10 6 0 10 -4 10 -10z m-120 -50 c0 -5 -4 -10 -10 -10 -5 0 -10 5 -10 10 0 6 5
10 10 10 6 0 10 -4 10 -10z m100 0 c0 -5 -4 -10 -10 -10 -5 0 -10 5 -10 10 0
6 5 10 10 10 6 0 10 -4 10 -10z m-50 -20 c0 -5 -4 -10 -10 -10 -5 0 -10 5 -10
10 0 6 5 10 10 10 6 0 10 -4 10 -10z m-4580 -9 c0 -5 12 -23 26 -40 19 -23 24
-38 20 -56 -13 -51 -88 -58 -106 -9 -13 32 -6 44 21 37 17 -5 19 -2 13 21 -3
14 -4 33 0 41 6 16 26 21 26 6z m-653 -83 c-2 -18 -4 -6 -4 27 0 33 2 48 4 33
2 -15 2 -42 0 -60z m111 25 l-2 -58 -3 53 c-3 43 -7 53 -19 48 -9 -3 -12 -1
-9 4 3 6 13 10 21 10 11 0 14 -13 12 -57z m803 33 c23 -50 -20 -106 -56 -76
-15 12 -21 81 -8 93 16 16 54 6 64 -17z m-1121 -31 c0 -10 -10 -15 -31 -15
-20 0 -29 -4 -26 -12 2 -7 16 -12 31 -11 14 1 24 -2 21 -8 -9 -13 -39 -11 -53
3 -18 18 -15 56 5 67 21 11 53 -3 53 -24z m164 19 c24 -23 19 -34 -15 -34 -20
0 -29 -4 -26 -12 2 -7 14 -13 26 -12 13 0 18 -3 12 -9 -18 -18 -51 3 -51 33 0
16 4 32 10 35 6 3 7 -1 4 -9 -5 -12 1 -16 21 -16 27 0 28 0 10 20 -21 24 -14
27 9 4z m-98 -26 c8 17 16 32 19 32 6 0 -16 -63 -26 -74 -5 -6 -15 6 -24 27
-20 48 -18 62 2 17 l16 -35 13 33z m-156 -44 c0 -2 -13 -4 -30 -4 -16 0 -30 4
-30 8 0 5 14 7 30 4 17 -2 30 -6 30 -8z m-6850 -153 c-22 -6 -26 -14 -31 -66
l-6 -60 -1 62 c-2 55 -4 62 -24 66 -13 2 2 4 32 5 37 0 47 -2 30 -7z m344 -42
c11 11 24 21 30 21 6 0 1 -10 -11 -22 l-22 -21 21 -31 22 -31 -25 23 c-14 12
-28 22 -31 22 -4 0 -9 -10 -11 -22 -2 -13 -4 9 -4 47 0 52 1 60 6 31 l6 -38
19 21z m2486 -11 c0 -62 -1 -63 -28 -65 -35 -2 -52 13 -52 47 0 37 25 58 51
42 17 -11 19 -9 19 13 0 14 2 25 5 25 3 0 5 -28 5 -62z m1130 -3 c0 -37 -4
-65 -10 -65 -6 0 -10 28 -10 65 0 37 4 65 10 65 6 0 10 -28 10 -65z m-3899 19
c-12 -9 -21 -29 -24 -52 -3 -32 -4 -30 -5 13 -2 47 -1 50 24 51 25 2 25 2 5
-12z m93 10 c11 -4 16 -19 16 -49 0 -41 -1 -42 -32 -41 -26 1 -34 6 -36 23 -3
17 3 23 28 28 38 8 34 31 -6 28 -22 -2 -25 0 -14 7 18 11 23 12 44 4z m116 -9
c15 -18 -1 -20 -18 -3 -17 17 -44 -10 -40 -41 2 -21 8 -26 30 -26 14 1 24 -3
22 -7 -8 -12 -38 -10 -52 4 -7 7 -12 24 -12 38 0 46 43 67 70 35z m238 -27 c8
24 16 41 19 38 8 -8 -41 -125 -54 -130 -10 -4 -10 -1 -1 14 10 15 9 27 -1 57
-23 63 -22 71 0 23 l22 -45 15 43z m110 30 c7 -7 12 -27 12 -45 0 -27 -5 -34
-25 -39 -48 -12 -75 44 -39 80 19 19 36 20 52 4z m121 -40 c0 -29 -3 -48 -6
-41 -3 10 -9 10 -24 0 -17 -10 -23 -9 -35 7 -16 23 -19 76 -4 76 6 0 10 -15
10 -34 0 -19 5 -38 10 -41 19 -12 40 16 40 51 0 19 2 34 5 34 3 0 5 -24 4 -52z
m62 36 c-12 -9 -21 -29 -24 -52 -3 -32 -4 -30 -5 13 -2 47 -1 50 24 51 25 2
25 2 5 -12z m96 -61 c-2 -16 -4 -3 -4 27 0 30 2 43 4 28 2 -16 2 -40 0 -55z
m102 63 c7 -8 11 -32 8 -53 l-4 -38 -1 41 c-1 28 -7 44 -18 48 -25 10 -34 -2
-34 -45 0 -21 -4 -39 -10 -39 -5 0 -10 20 -10 44 0 34 4 46 18 49 31 8 39 7
51 -7z m111 -1 c15 -18 -1 -20 -18 -3 -17 17 -44 -10 -40 -41 2 -21 8 -26 30
-26 14 1 24 -3 22 -7 -8 -12 -38 -10 -52 4 -7 7 -12 24 -12 38 0 46 43 67 70
35z m98 3 c7 -7 12 -27 12 -45 0 -27 -5 -34 -25 -39 -48 -12 -75 44 -39 80 19
19 36 20 52 4z m102 2 c0 -6 8 -5 19 2 30 18 51 -5 50 -56 l-2 -41 -6 42 c-8
49 -14 58 -36 50 -10 -4 -16 -21 -17 -49 l-1 -43 -4 40 c-3 22 -8 44 -13 49
-15 15 -39 -13 -43 -52 -3 -31 -4 -29 -5 13 -2 49 -1 50 28 52 17 1 30 -2 30
-7z m164 -6 c25 -24 19 -34 -20 -34 -28 0 -35 -3 -32 -17 2 -12 13 -18 30 -18
15 1 24 -3 22 -7 -8 -12 -38 -10 -52 4 -26 26 -8 88 24 88 7 0 20 -7 28 -16z
m210 0 c25 -24 19 -34 -20 -34 -28 0 -35 -3 -32 -17 2 -12 13 -18 30 -18 15 1
24 -3 22 -7 -8 -12 -38 -10 -52 4 -26 26 -8 88 24 88 7 0 20 -7 28 -16z m89
-2 l19 23 -16 -27 c-15 -26 -15 -30 0 -55 l16 -28 -20 24 -20 24 -12 -22 c-6
-13 -14 -20 -17 -18 -3 3 2 16 10 28 14 19 14 24 1 48 l-16 26 18 -23 18 -24
19 24z m115 6 c17 -14 15 -63 -3 -78 -8 -6 -23 -9 -34 -5 -16 5 -20 1 -24 -22
-2 -15 -5 4 -5 42 -2 70 -2 70 26 72 15 1 33 -3 40 -9z m106 -4 c25 -24 19
-34 -20 -34 -28 0 -35 -3 -32 -17 2 -12 13 -18 30 -18 15 1 24 -3 22 -7 -8
-12 -38 -10 -52 4 -26 26 -8 88 24 88 7 0 20 -7 28 -16z m57 -37 c-4 -61 -11
-59 -11 3 0 29 3 50 7 46 4 -4 6 -26 4 -49z m48 39 c7 -8 11 -32 8 -53 l-4
-38 -1 42 c-1 28 -8 45 -19 52 -10 6 -13 11 -7 11 6 0 17 -6 23 -14z m101 4
c11 -8 8 -9 -11 -4 -40 9 -47 -15 -10 -29 23 -8 31 -17 29 -32 -3 -22 -44 -33
-61 -16 -7 7 -2 10 18 8 15 -1 30 4 32 11 3 6 -2 12 -9 12 -8 0 -23 6 -33 14
-16 12 -17 16 -6 30 15 18 30 20 51 6z m104 -6 c25 -24 19 -34 -20 -34 -28 0
-35 -3 -32 -17 2 -12 13 -18 30 -18 15 1 24 -3 22 -7 -8 -12 -38 -10 -52 4
-26 26 -8 88 24 88 7 0 20 -7 28 -16z m96 6 c11 -8 8 -9 -11 -4 -40 9 -47 -15
-10 -29 23 -8 31 -17 29 -32 -3 -22 -44 -33 -61 -16 -7 7 -2 10 18 8 15 -1 30
4 32 11 3 6 -2 12 -9 12 -8 0 -23 6 -33 14 -16 12 -17 16 -6 30 15 18 30 20
51 6z m208 -41 l3 -46 -33 1 c-26 1 -34 6 -36 23 -3 17 3 23 28 28 35 8 35 31
1 28 -14 -2 -20 1 -16 8 4 5 17 9 28 7 18 -2 22 -11 25 -49z m53 -2 c-4 -61
-11 -59 -11 3 0 29 3 50 7 46 4 -4 6 -26 4 -49z m48 39 c7 -8 11 -32 8 -53
l-4 -38 -1 42 c-1 28 -8 45 -19 52 -10 6 -13 11 -7 11 6 0 17 -6 23 -14z m261
4 c11 -8 8 -9 -11 -4 -40 9 -47 -15 -10 -29 23 -8 31 -17 29 -32 -3 -22 -44
-33 -61 -16 -7 7 -2 10 18 8 15 -1 30 4 32 11 3 6 -2 12 -9 12 -8 0 -23 6 -33
14 -16 12 -17 16 -6 30 15 18 30 20 51 6z m94 4 c11 -4 16 -19 16 -49 0 -41
-1 -42 -32 -41 -26 1 -34 6 -36 23 -3 17 3 23 28 28 38 8 34 31 -6 28 -22 -2
-25 0 -14 7 18 11 23 12 44 4z m65 -36 l18 -43 16 45 c10 25 15 33 12 18 -9
-47 -25 -82 -34 -72 -11 13 -42 94 -36 94 3 0 14 -19 24 -42z m88 -35 c-2 -16
-4 -3 -4 27 0 30 2 43 4 28 2 -16 2 -40 0 -55z m102 63 c7 -8 11 -32 8 -53
l-4 -38 -1 41 c-1 28 -7 44 -18 48 -25 10 -34 -2 -34 -45 0 -21 -4 -39 -10
-39 -5 0 -10 20 -10 44 0 34 4 46 18 49 31 8 39 7 51 -7z m97 3 c4 -8 9 -7 15
2 5 9 9 -10 9 -49 0 -57 -2 -63 -25 -74 -20 -9 -28 -9 -38 2 -10 10 -9 12 6 7
25 -9 47 2 47 25 0 17 -3 18 -14 9 -23 -19 -56 3 -56 37 0 42 38 70 56 41z
m114 1 c11 -8 8 -9 -11 -4 -40 9 -47 -15 -10 -29 23 -8 31 -17 29 -32 -3 -22
-44 -33 -61 -16 -7 7 -2 10 18 8 15 -1 30 4 32 11 3 6 -2 12 -9 12 -8 0 -23 6
-33 14 -16 12 -17 16 -6 30 15 18 30 20 51 6z m146 -1 c4 -8 9 -7 15 2 5 9 9
-10 9 -49 0 -56 -2 -64 -24 -73 -17 -8 -29 -8 -42 0 -17 11 -17 11 4 6 13 -4
29 -1 37 5 18 15 20 44 3 34 -10 -6 -10 -4 0 7 26 28 3 76 -32 63 -21 -8 -21
-60 0 -68 9 -4 14 -9 11 -13 -12 -11 -37 20 -37 46 0 41 38 68 56 40z m123 -3
c31 -37 -9 -103 -46 -80 -37 23 -24 94 17 94 10 0 23 -6 29 -14z m95 8 c11 -4
16 -19 16 -49 0 -41 -1 -42 -32 -41 -26 1 -34 6 -36 23 -3 17 3 23 28 28 38 8
34 31 -6 28 -22 -2 -25 0 -14 7 18 11 23 12 44 4z m151 -4 c4 -6 -3 -9 -16 -7
-32 3 -35 -21 -4 -29 19 -5 25 -12 23 -28 -3 -22 -34 -34 -50 -18 -6 6 0 8 16
5 35 -7 36 24 1 33 -24 6 -34 32 -18 47 10 10 41 8 48 -3z m-2518 -92 c-3 -8
-6 -5 -6 6 -1 11 2 17 5 13 3 -3 4 -12 1 -19z m924 -9 c-9 -22 -10 -22 -10 -3
-1 11 2 24 6 27 12 12 14 0 4 -24z m5753 -609 c8 0 25 -12 40 -26 35 -36 36
-91 0 -133 -21 -26 -33 -31 -69 -31 -74 0 -119 67 -91 135 16 36 67 69 94 60
8 -3 19 -5 26 -5z m-7358 -37 c19 -39 23 -128 7 -144 -6 -6 -48 -9 -94 -7
l-84 3 -3 79 c-2 44 -1 85 2 93 4 9 27 13 80 13 l75 0 17 -37z m4774 -134 l85
-6 -90 1 -90 1 -1 90 -1 90 6 -85 6 -85 85 -6z m-2470 123 c3 -13 3 -43 1 -68
l-3 -45 -97 3 -96 3 -3 54 c-5 83 -6 82 100 79 87 -3 92 -4 98 -26z m2477 -69
c-2 -21 -4 -6 -4 32 0 39 2 55 4 38 2 -18 2 -50 0 -70z m-4565 70 c36 -32 16
-103 -29 -103 -54 0 -80 52 -47 98 18 26 50 28 76 5z m398 7 c0 -5 -7 -10 -15
-10 -8 0 -15 5 -15 10 0 6 7 10 15 10 8 0 15 -4 15 -10z m2490 0 c0 -5 -4 -10
-10 -10 -5 0 -10 5 -10 10 0 6 5 10 10 10 6 0 10 -4 10 -10z m-612 -7 c-14 -3
-18 -15 -18 -54 0 -27 -4 -49 -10 -49 -5 0 -10 22 -10 49 0 39 -4 51 -17 54
-10 3 2 5 27 5 25 0 37 -2 28 -5z m561 -31 c-13 -5 -11 -46 4 -61 10 -11 9
-13 -3 -9 -16 5 -29 60 -22 91 4 17 5 17 18 0 7 -10 8 -19 3 -21z m2004 -13
c10 -28 16 -53 13 -56 -3 -3 -8 2 -12 11 -8 21 -50 21 -63 -1 -16 -27 -13 -3
6 50 9 26 22 47 28 47 6 0 18 -23 28 -51z m234 -31 c-2 -18 -4 -6 -4 27 0 33
2 48 4 33 2 -15 2 -42 0 -60z m157 50 c8 -5 7 -8 -1 -8 -8 0 -13 -13 -13 -29
0 -16 6 -32 13 -34 7 -3 5 -6 -5 -6 -14 -1 -18 7 -18 34 0 19 -5 35 -10 35 -6
0 -5 8 2 20 9 13 14 16 17 8 2 -7 9 -16 15 -20z m2184 12 c4 -12 2 -13 -9 -2
-31 29 -76 1 -65 -42 6 -26 28 -39 51 -30 21 8 19 32 -2 37 -11 3 -7 5 10 6
31 1 33 -6 11 -37 -18 -26 -46 -28 -68 -6 -19 19 -21 65 -4 82 17 17 70 11 76
-8z m229 -62 c-2 -18 -4 -6 -4 27 0 33 2 48 4 33 2 -15 2 -42 0 -60z m-7584
30 l14 -33 7 33 c4 17 14 32 21 32 11 0 11 -8 -2 -45 -8 -25 -21 -45 -28 -45
-7 0 -20 18 -29 40 -19 47 -19 50 -6 50 5 0 16 -15 23 -32z m125 20 c22 -22
13 -38 -19 -38 -27 0 -30 -2 -19 -15 9 -11 16 -12 25 -5 13 11 28 2 19 -11 -8
-13 -48 -11 -62 3 -26 26 -7 78 28 78 9 0 21 -5 28 -12z m82 2 c0 -5 -7 -10
-15 -10 -10 0 -15 -11 -15 -35 0 -19 -4 -35 -10 -35 -5 0 -10 20 -10 45 0 41
2 45 25 45 14 0 25 -4 25 -10z m38 -17 l9 -28 13 28 c13 26 30 37 30 18 0 -22
-32 -81 -44 -81 -10 0 -36 59 -36 84 0 17 20 3 28 -21z m82 -18 c0 -25 -4 -45
-10 -45 -5 0 -10 20 -10 45 0 25 5 45 10 45 6 0 10 -20 10 -45z m88 33 c21
-21 13 -38 -18 -38 -16 0 -30 -4 -30 -9 0 -13 28 -22 35 -10 4 5 11 7 16 3 16
-10 -1 -24 -31 -24 -28 0 -40 15 -40 49 0 21 19 41 40 41 9 0 21 -5 28 -12z
m47 -15 l8 -28 6 24 c9 35 29 37 37 4 l7 -28 10 28 c5 15 13 27 18 27 12 0 11
-5 -3 -51 -13 -43 -32 -51 -43 -16 l-8 22 -4 -22 c-2 -13 -10 -23 -18 -23 -13
0 -35 49 -35 76 0 25 18 15 25 -13z m1825 17 c0 -5 -6 -10 -14 -10 -10 0 -16
-13 -19 -37 l-4 -38 -1 42 c-2 32 2 43 16 46 9 3 18 5 20 6 1 0 2 -3 2 -9z
m68 -2 c7 -7 12 -26 12 -43 0 -30 -3 -32 -32 -31 -46 1 -52 34 -9 42 17 4 31
10 31 14 0 14 -27 19 -39 7 -8 -8 -11 -8 -11 0 0 10 14 20 31 22 3 1 10 -4 17
-11z m98 -39 c1 -39 1 -40 -3 -6 -3 28 -9 37 -23 37 -14 0 -20 -9 -23 -37 l-4
-38 -1 42 c-2 32 2 43 16 46 31 8 37 1 38 -44z m84 40 c13 -8 12 -9 -4 -7 -10
2 -21 -3 -23 -9 -3 -7 2 -13 9 -13 24 0 39 -22 27 -37 -14 -16 -45 -17 -54 -3
-4 7 2 9 19 4 34 -8 35 13 1 26 -28 11 -31 20 -13 38 14 14 19 15 38 1z m84 5
c11 -4 16 -19 16 -43 0 -33 -3 -37 -27 -39 -15 -1 -30 3 -34 10 -10 16 9 38
32 38 21 0 25 15 9 25 -6 4 -17 1 -25 -5 -9 -8 -15 -8 -15 -2 0 6 6 13 13 15
6 3 13 6 14 6 1 1 8 -2 17 -5z m102 -9 c10 -8 14 -15 7 -15 -6 0 -14 4 -18 10
-12 19 -36 -2 -33 -29 2 -20 8 -26 26 -25 14 0 19 -3 13 -9 -5 -5 -17 -7 -27
-5 -23 4 -31 52 -13 74 14 18 20 18 45 -1z m189 -9 c29 -43 -18 -89 -53 -54
-18 18 -15 55 6 67 25 15 30 14 47 -13z m93 12 c14 -14 16 -78 2 -78 -5 0 -10
16 -10 35 0 28 -4 35 -19 35 -15 0 -21 -8 -24 -37 l-4 -38 -1 42 c-2 40 1 44
39 52 3 0 10 -4 17 -11z m82 1 c13 -8 12 -9 -4 -7 -10 2 -21 -3 -23 -9 -3 -7
2 -13 9 -13 24 0 39 -22 27 -37 -14 -16 -45 -17 -54 -3 -4 7 2 9 19 4 34 -8
35 13 1 26 -28 11 -31 20 -13 38 14 14 19 15 38 1z m1470 -29 c0 -22 -4 -40
-10 -40 -5 0 -10 18 -10 40 0 22 5 40 10 40 6 0 10 -18 10 -40z m328 -14 l-1
-41 -4 38 c-3 29 -9 37 -24 37 -15 0 -19 -7 -19 -35 0 -19 -4 -35 -10 -35 -5
0 -10 18 -10 39 0 33 4 40 23 43 39 7 47 -2 45 -46z m76 48 c11 -4 16 -19 16
-43 0 -33 -3 -37 -27 -39 -15 -1 -30 3 -34 10 -10 16 9 38 32 38 21 0 25 15 9
25 -6 4 -17 1 -25 -5 -9 -8 -15 -8 -15 -2 0 6 6 13 13 15 6 3 13 6 14 6 1 1 8
-2 17 -5z m332 -9 c10 -8 14 -15 7 -15 -6 0 -14 4 -18 10 -12 19 -36 -2 -33
-29 2 -20 8 -26 26 -25 14 0 19 -3 13 -9 -5 -5 -17 -7 -27 -5 -23 4 -31 52
-13 74 14 18 20 18 45 -1z m78 6 c3 -5 -2 -8 -11 -7 -25 2 -27 -22 -1 -26 15
-2 23 -10 23 -23 0 -22 -31 -33 -48 -16 -7 7 -4 8 10 5 31 -8 38 14 9 26 -27
10 -35 35 -13 43 19 8 25 8 31 -2z m2067 -1 c38 -21 14 -86 -28 -78 -22 4 -30
53 -12 74 14 17 15 17 40 4z m97 -2 c7 -7 12 -26 12 -43 0 -30 -3 -32 -32 -31
-46 1 -52 34 -9 42 17 4 31 10 31 14 0 14 -27 19 -39 7 -8 -8 -11 -8 -11 0 0
10 14 20 31 22 3 1 10 -4 17 -11z m127 1 c4 -6 0 -9 -10 -7 -29 5 -28 -19 0
-26 35 -9 30 -40 -8 -44 -15 -2 -27 1 -27 6 0 5 8 8 18 8 24 -1 27 18 2 22
-22 4 -28 37 -7 45 19 8 25 8 32 -4z m-4835 -39 c0 -22 -4 -40 -10 -40 -5 0
-10 18 -10 40 0 22 5 40 10 40 6 0 10 -18 10 -40z m2242 8 l12 -33 13 34 c8
18 16 31 19 29 10 -10 -39 -108 -54 -108 -13 0 -13 2 2 13 16 11 16 15 1 49
-16 41 -18 48 -9 48 3 0 10 -15 16 -32z m135 -30 c-2 -13 -4 -3 -4 22 0 25 2
35 4 23 2 -13 2 -33 0 -45z m-750 -10 c-3 -7 -5 -2 -5 12 0 14 2 19 5 13 2 -7
2 -19 0 -25z m-5095 -960 c20 -31 30 -87 22 -127 l-7 -32 -86 3 -86 3 -3 73
c-2 46 2 79 9 88 8 9 32 14 74 14 54 0 65 -3 77 -22z m376 -25 c-14 -3 -18
-16 -20 -56 l-2 -52 -3 52 c-3 44 -7 52 -26 56 -12 2 -2 4 23 4 25 1 37 -1 28
-4z m144 -45 c-1 -24 3 -45 10 -50 9 -5 8 -8 -4 -8 -14 0 -18 8 -18 35 0 19
-5 35 -10 35 -6 0 -5 8 2 20 17 26 22 18 20 -32z m135 -30 c-2 -18 -4 -6 -4
27 0 33 2 48 4 33 2 -15 2 -42 0 -60z m138 52 c0 -14 4 -31 8 -38 13 -19 -11
-42 -44 -42 -28 0 -29 1 -29 56 l0 55 33 -3 c27 -2 32 -7 32 -28z m132 -52
c-2 -18 -4 -6 -4 27 0 33 2 48 4 33 2 -15 2 -42 0 -60z m7902 45 c0 -23 -2
-25 -8 -9 -4 11 -16 23 -27 27 -16 6 -14 8 9 8 23 1 27 -3 26 -26z m-8364 -7
c29 -43 -18 -89 -53 -54 -18 18 -15 55 6 67 25 15 30 14 47 -13z m143 12 c7
-7 12 -26 12 -43 0 -30 -3 -32 -32 -31 -46 1 -52 34 -9 42 17 4 31 10 31 14 0
14 -27 19 -39 7 -8 -8 -11 -8 -11 0 0 10 14 20 31 22 3 1 10 -4 17 -11z m266
6 c11 -4 16 -19 16 -44 0 -34 -2 -37 -27 -36 -36 1 -40 39 -5 44 31 5 22 28
-9 24 -19 -2 -21 -1 -9 7 18 13 15 12 34 5z m130 0 c11 -4 16 -19 16 -44 0
-34 -2 -37 -27 -36 -36 1 -40 39 -5 44 31 5 22 28 -9 24 -19 -2 -21 -1 -9 7
18 13 15 12 34 5z m115 -53 l-2 -36 -6 35 c-4 26 -11 35 -26 35 -15 0 -22 -9
-26 -35 l-6 -35 -2 42 c-1 36 2 42 22 45 33 6 47 -10 46 -51z m75 53 c25 -10
19 -22 -9 -16 -22 4 -25 1 -25 -22 0 -30 27 -46 42 -25 8 12 9 11 5 -1 -6 -22
-39 -25 -54 -4 -17 23 -16 39 3 58 18 18 17 18 38 10z m100 -10 c24 -23 19
-34 -15 -34 -20 0 -29 -4 -26 -12 2 -7 14 -13 26 -12 13 0 18 -3 12 -9 -5 -5
-17 -7 -27 -5 -23 4 -31 52 -13 74 15 18 24 18 43 -2z m7495 -20 c-23 -23 -29
-24 -47 -13 -18 11 -24 11 -40 -4 -29 -26 -38 -20 -12 8 27 29 37 31 60 10 15
-14 19 -13 35 5 10 11 21 20 24 20 3 0 -6 -12 -20 -26z m-8959 -469 c0 -8 8
-15 18 -15 22 0 62 -35 62 -55 0 -20 -46 -20 -54 0 -9 25 -26 17 -26 -14 0
-24 7 -33 37 -48 51 -24 64 -63 36 -101 -11 -15 -30 -29 -43 -30 -12 -2 -25
-12 -27 -23 -6 -22 -23 -26 -23 -5 0 8 -17 23 -37 33 -20 10 -40 28 -44 41 -7
19 -5 22 15 22 13 0 29 -7 36 -15 20 -24 30 -17 30 20 0 23 -5 35 -14 35 -27
0 -66 41 -66 70 0 29 39 70 66 70 8 0 14 7 14 15 0 8 5 15 10 15 6 0 10 -7 10
-15z m277 -39 c24 -21 28 -32 31 -93 4 -66 2 -72 -26 -104 -39 -44 -90 -46
-130 -6 -25 25 -27 34 -27 103 0 71 2 77 28 100 37 32 87 32 124 0z m317 -7
c22 -25 26 -41 26 -90 0 -72 -19 -113 -58 -127 -70 -24 -123 17 -130 103 -8
94 28 145 99 145 29 0 43 -7 63 -31z m221 7 c27 -27 40 -81 31 -134 -11 -73
-66 -112 -127 -90 -69 24 -87 162 -28 224 31 33 91 33 124 0z m-420 -201 c0
-21 -31 -33 -46 -18 -5 5 -7 17 -3 27 9 24 49 17 49 -9z m65 -315 c0 -23 -29
-35 -36 -15 -4 8 -4 22 0 30 7 20 36 8 36 -15z m430 20 c0 -5 -4 -10 -10 -10
-5 0 -10 5 -10 10 0 6 5 10 10 10 6 0 10 -4 10 -10z m-652 -43 c4 -44 -12 -69
-41 -65 -25 4 -40 50 -26 85 7 19 15 24 37 21 23 -3 27 -8 30 -41z m143 19
c23 -50 -20 -106 -56 -76 -15 12 -21 81 -8 93 16 16 54 6 64 -17z m95 -38
c-20 -29 -36 -49 -36 -45 0 10 64 106 68 102 2 -2 -12 -27 -32 -57z m933 24
c-13 -5 -11 -46 4 -61 10 -11 9 -13 -3 -9 -16 5 -29 60 -22 91 4 17 5 17 18 0
7 -10 8 -19 3 -21z m-1400 -24 l-2 -43 -6 35 c-5 30 -11 36 -41 41 l-35 6 43
2 42 1 -1 -42z m651 31 c13 -9 13 -10 -1 -6 -9 3 -22 1 -30 -3 -10 -7 -6 -11
15 -19 18 -7 26 -17 24 -28 -4 -21 -36 -29 -52 -13 -8 9 -4 10 17 5 35 -9 37
12 2 25 -26 10 -34 35 -12 43 18 8 21 8 37 -4z m88 -1 c7 -7 12 -26 12 -43 0
-30 -3 -32 -32 -31 -46 1 -52 34 -9 42 17 4 31 10 31 14 0 14 -27 19 -39 7 -8
-8 -11 -8 -11 0 0 10 14 20 31 22 3 1 10 -4 17 -11z m230 -42 l-1 -41 -4 38
c-3 29 -9 37 -24 37 -15 0 -19 -7 -19 -35 0 -19 -4 -35 -10 -35 -5 0 -10 18
-10 39 0 33 4 40 23 43 39 7 47 -2 45 -46z m93 44 c6 0 9 -23 7 -52 -3 -47 -6
-53 -27 -56 -13 -2 -27 0 -32 5 -5 5 3 9 18 8 14 0 28 6 31 14 3 9 -1 11 -14
7 -27 -8 -46 8 -46 39 0 29 19 48 40 40 8 -3 18 -5 23 -5z m85 -2 c5 -8 2 -9
-9 -5 -9 3 -19 2 -22 -3 -4 -6 6 -15 20 -20 17 -7 25 -16 23 -27 -4 -21 -35
-30 -51 -14 -7 7 -4 8 10 5 31 -8 38 14 9 26 -27 10 -35 35 -13 43 20 9 25 8
33 -5z m124 2 c0 -5 -6 -10 -14 -10 -10 0 -16 -13 -19 -37 l-4 -38 -1 42 c-2
32 2 43 16 46 9 3 18 5 20 6 1 0 2 -3 2 -9z m68 -2 c7 -7 12 -26 12 -43 0 -30
-3 -32 -32 -31 -46 1 -52 34 -9 42 17 4 31 10 31 14 0 14 -27 19 -39 7 -8 -8
-11 -8 -11 0 0 10 14 20 31 22 3 1 10 -4 17 -11z m143 2 c30 -17 24 -40 -12
-40 -20 0 -29 -4 -26 -12 2 -7 17 -12 32 -11 20 2 25 -1 18 -8 -17 -17 -55 -6
-64 17 -5 14 -2 29 7 43 17 24 19 25 45 11z m-689 -32 l12 -33 13 34 c8 18 16
31 19 28 6 -6 -22 -77 -31 -77 -6 0 -35 63 -35 75 0 16 13 1 22 -27z m88 -8
c0 -22 -4 -40 -10 -40 -5 0 -10 18 -10 40 0 22 5 40 10 40 6 0 10 -18 10 -40z
m-900 27 c0 -2 -15 -16 -32 -33 l-33 -29 29 33 c28 30 36 37 36 29z m548 -40
c4 -21 -27 -35 -38 -17 -12 19 0 42 19 38 9 -2 17 -11 19 -21z m5062 -890 c12
-4 11 -6 -2 -6 -15 -1 -18 -10 -18 -51 0 -28 5 -50 10 -50 17 0 24 31 9 42
-12 8 -11 9 1 5 8 -2 16 -13 18 -25 4 -27 -26 -40 -72 -33 -30 4 -30 5 -6 11
22 5 25 11 25 50 0 26 -5 45 -12 47 -19 7 -29 -27 -12 -39 12 -8 11 -9 -1 -5
-8 2 -16 13 -18 25 -2 16 3 23 22 28 14 3 26 11 26 18 0 8 2 8 8 0 4 -6 14
-14 22 -17z m-5003 -79 c-2 -18 -4 -6 -4 27 0 33 2 48 4 33 2 -15 2 -42 0 -60z
m2465 75 c-40 -5 -41 -33 -2 -44 25 -7 25 -7 -3 -8 -39 -1 -33 -34 8 -42 29
-6 29 -7 -7 -8 l-38 -1 0 55 0 55 38 -2 37 -1 -33 -4z m2721 -40 c-7 -71 -11
-75 -12 -10 -1 31 3 57 8 57 5 0 6 -21 4 -47z m65 -35 l-3 -33 -29 43 c-16 23
-27 45 -24 48 3 2 15 -10 27 -28 l21 -33 1 45 c1 30 3 36 6 18 2 -15 3 -42 1
-60z m151 44 c-13 -5 -11 -46 4 -61 10 -11 9 -13 -3 -9 -16 5 -29 60 -22 91 4
17 5 17 18 0 7 -10 8 -19 3 -21z m2181 29 c0 -4 -11 -6 -24 -4 -38 8 -39 -13
-1 -36 38 -22 42 -32 21 -51 -19 -15 -58 -9 -64 10 -5 13 -3 13 11 1 9 -7 24
-11 32 -7 18 7 20 36 2 36 -24 0 -51 26 -44 44 7 17 67 24 67 7z m-7751 -53
l-2 -43 -6 35 c-5 30 -11 36 -41 41 l-35 6 43 2 42 1 -1 -42z m269 -12 l-1
-41 -4 38 c-3 29 -9 37 -24 37 -15 0 -19 -7 -19 -35 0 -19 -4 -35 -10 -35 -5
0 -10 18 -10 39 0 33 4 40 23 43 39 7 47 -2 45 -46z m76 48 c9 -3 16 -11 16
-16 0 -7 -4 -7 -13 0 -19 16 -39 -1 -35 -29 2 -18 9 -24 26 -23 14 0 19 -3 13
-9 -5 -5 -17 -7 -27 -5 -23 4 -31 52 -13 74 13 16 12 16 33 8z m97 -4 c38 -21
14 -86 -28 -78 -22 4 -30 53 -12 74 14 17 15 17 40 4z m118 0 c27 16 41 0 39
-44 l-1 -41 -4 38 c-3 29 -9 37 -24 37 -15 0 -19 -8 -21 -37 l-1 -38 -4 38
c-3 28 -9 37 -23 37 -14 0 -20 -9 -23 -37 l-4 -38 -1 42 c-2 32 2 42 16 45 9
3 22 1 27 -3 6 -4 17 -4 24 1z m125 -6 c24 -23 19 -34 -15 -34 -20 0 -29 -4
-26 -12 2 -7 13 -13 25 -12 12 0 19 -3 16 -8 -16 -25 -64 6 -64 41 0 12 28 41
40 41 5 0 16 -7 24 -16z m2145 2 c7 -8 11 -27 9 -43 -2 -22 -8 -28 -28 -28
-16 0 -27 -7 -32 -20 -3 -11 -6 5 -7 38 -1 34 3 56 8 52 5 -3 12 -1 16 5 9 14
20 13 34 -4z m95 -2 c24 -23 19 -34 -15 -34 -20 0 -29 -4 -26 -12 2 -7 14 -13
26 -12 13 0 18 -3 12 -9 -5 -5 -17 -7 -27 -5 -23 4 -31 52 -13 74 15 18 24 18
43 -2z m105 -43 l-2 -36 -6 35 c-4 26 -11 35 -26 35 -15 0 -22 -9 -26 -35 l-6
-35 -2 42 c-1 36 2 42 22 45 33 6 47 -10 46 -51z m76 48 c4 -6 0 -9 -10 -7
-29 5 -28 -19 0 -26 18 -5 25 -12 23 -24 -4 -19 -35 -29 -49 -15 -6 6 -3 9 8
9 25 -1 28 18 3 22 -22 4 -28 37 -7 45 19 8 25 8 32 -4z m105 -24 c0 -10 -10
-15 -31 -15 -20 0 -29 -4 -26 -12 2 -7 16 -12 31 -11 14 1 24 -2 21 -8 -9 -13
-39 -11 -53 3 -18 18 -15 56 5 67 21 11 53 -3 53 -24z m70 24 c13 -9 13 -10
-1 -6 -9 3 -22 1 -30 -3 -11 -7 -9 -10 6 -16 36 -13 46 -25 34 -40 -14 -16
-45 -18 -54 -4 -4 7 2 9 19 4 34 -8 35 13 1 26 -28 11 -31 20 -13 38 15 15 19
15 38 1z m2228 -1 c22 -22 13 -38 -19 -38 -20 0 -29 -4 -26 -12 2 -7 16 -12
31 -11 14 1 24 -2 21 -8 -9 -13 -39 -11 -53 3 -18 18 -15 55 6 67 22 13 26 13
40 -1z m2316 6 c11 -4 16 -19 16 -44 0 -34 -2 -37 -27 -36 -36 1 -40 39 -5 44
31 5 22 28 -9 24 -19 -2 -21 -1 -9 7 18 13 15 12 34 5z m245 -53 l-2 -36 -6
35 c-4 26 -11 35 -26 35 -15 0 -22 -9 -26 -35 l-6 -35 -2 42 c-1 36 2 42 22
45 33 6 47 -10 46 -51z m76 49 c4 -6 11 -8 16 -5 10 7 13 -64 3 -89 -6 -16
-49 -22 -58 -8 -2 4 7 8 21 7 14 0 28 6 31 13 3 9 -3 11 -21 7 -19 -5 -28 -2
-36 13 -15 28 -14 38 5 56 18 18 30 20 39 6z m95 -1 c13 -9 13 -10 -1 -6 -9 3
-22 1 -30 -3 -11 -7 -9 -10 6 -16 36 -13 46 -25 34 -40 -14 -16 -45 -18 -54
-4 -4 7 2 9 19 4 34 -8 35 13 1 26 -28 11 -31 20 -13 38 15 15 19 15 38 1z
m-5537 -11 c3 -10 8 -9 22 2 17 14 17 14 7 -6 -9 -16 -8 -26 4 -42 18 -26 7
-30 -12 -4 -12 16 -14 16 -29 -3 -15 -19 -15 -19 -4 7 9 21 9 31 -1 43 -7 9
-8 15 -2 15 6 0 12 -6 15 -12z m5210 -20 c5 17 13 32 18 32 4 0 0 -18 -8 -40
-9 -22 -19 -40 -24 -40 -8 0 -29 56 -28 74 0 6 8 -5 16 -24 l16 -35 10 33z
m54 -30 c-2 -13 -4 -3 -4 22 0 25 2 35 4 23 2 -13 2 -33 0 -45z m-7987 49 c0
-2 -15 -16 -32 -33 l-33 -29 29 33 c28 30 36 37 36 29z m85 -297 c8 0 19 -9
25 -20 8 -16 8 -20 -4 -20 -8 0 -18 5 -21 10 -10 17 -25 11 -25 -10 0 -12 10
-25 24 -32 45 -20 45 -73 0 -84 -13 -3 -24 -11 -24 -18 0 -8 -3 -8 -8 0 -4 6
-15 13 -25 17 -19 7 -33 34 -23 44 3 3 15 -2 26 -12 20 -18 20 -17 20 7 0 17
-9 32 -26 42 -31 21 -29 57 4 71 12 5 22 17 22 25 1 12 3 11 11 -2 5 -10 16
-18 24 -18z m5122 -18 c18 -22 7 -28 -21 -12 -25 13 -56 8 -56 -9 0 -6 20 -19
45 -30 48 -21 58 -46 29 -75 -28 -28 -104 -14 -104 19 0 19 14 19 29 2 16 -20
56 -14 56 8 0 12 -12 22 -34 30 -19 6 -39 18 -44 27 -32 50 63 88 100 40z
m-4957 2 c20 -23 17 -100 -5 -124 -18 -20 -50 -26 -72 -12 -32 20 -38 105 -11
140 15 17 73 15 88 -4z m210 -3 c16 -31 12 -102 -7 -123 -32 -36 -86 -15 -99
38 -7 27 2 72 18 91 17 21 76 16 88 -6z m150 0 c16 -31 12 -102 -7 -123 -32
-36 -86 -15 -99 38 -7 27 2 72 18 91 17 21 76 16 88 -6z m4746 -6 c21 -32 13
-103 -12 -122 -47 -34 -94 -2 -94 64 0 63 13 83 55 83 26 0 39 -6 51 -25z
m210 0 c21 -32 13 -103 -12 -122 -47 -34 -94 -2 -94 64 0 63 13 83 55 83 26 0
39 -6 51 -25z m144 9 c20 -23 17 -100 -5 -124 -18 -20 -50 -26 -72 -12 -32 20
-38 105 -11 140 15 17 73 15 88 -4z m-690 -24 c0 -13 7 -20 20 -20 11 0 20 -4
20 -10 0 -5 -9 -10 -20 -10 -15 0 -20 -7 -20 -25 0 -14 -4 -25 -10 -25 -5 0
-10 9 -10 21 0 12 -8 23 -20 26 -11 3 -20 9 -20 14 0 5 9 9 20 9 13 0 20 7 20
20 0 11 5 20 10 20 6 0 10 -9 10 -20z m-4700 -105 c0 -8 -4 -15 -9 -15 -13 0
-22 16 -14 24 11 11 23 6 23 -9z m5102 0 c0 -5 -5 -11 -11 -13 -6 -2 -11 4
-11 13 0 9 5 15 11 13 6 -2 11 -8 11 -13z m-5404 -182 c-14 -3 -18 -16 -20
-51 l-2 -47 -3 47 c-3 33 -9 48 -21 51 -9 3 1 5 23 5 22 0 32 -2 23 -5z m39
-70 c-2 -16 -4 -3 -4 27 0 30 2 43 4 28 2 -16 2 -40 0 -55z m550 0 c-2 -16 -4
-3 -4 27 0 30 2 43 4 28 2 -16 2 -40 0 -55z m1921 70 c-10 -2 -26 -2 -35 0
-10 3 -2 5 17 5 19 0 27 -2 18 -5z m2520 0 c-14 -3 -18 -16 -20 -51 l-2 -47
-3 47 c-3 33 -9 48 -21 51 -9 3 1 5 23 5 22 0 32 -2 23 -5z m2726 -2 c3 -4 -6
-6 -19 -3 -20 3 -25 0 -25 -17 0 -24 27 -29 50 -8 12 10 12 9 1 -5 -9 -13 -10
-22 -1 -40 l11 -23 -17 23 c-9 12 -22 22 -30 22 -7 0 -15 -10 -17 -22 -2 -13
-5 1 -6 30 -1 49 0 52 23 52 14 0 27 -4 30 -9z m-7202 -53 c2 -21 1 -38 -3
-38 -8 0 -16 63 -10 81 5 17 8 7 13 -43z m2510 5 c-3 -15 1 -29 9 -35 12 -8
11 -9 -1 -5 -10 2 -16 19 -18 48 -1 28 1 39 6 31 5 -7 7 -25 4 -39z m2510 1
c-6 -35 -12 -29 -12 14 0 23 3 32 9 24 4 -7 6 -24 3 -38z m2300 0 c-6 -35 -12
-29 -12 14 0 23 3 32 9 24 4 -7 6 -24 3 -38z m-7784 -20 c-3 -27 -4 -26 -9 8
-3 22 -1 34 4 29 5 -5 7 -21 5 -37z m29 -6 c-2 -13 -4 -5 -4 17 -1 22 1 32 4
23 2 -10 2 -28 0 -40z m195 15 c-2 -18 -5 -33 -7 -33 -2 0 -5 15 -7 33 -2 20
1 34 7 34 6 0 9 -14 7 -34z m38 2 c0 -19 -2 -35 -4 -35 -2 0 -6 16 -8 35 -2
19 0 35 4 35 4 0 8 -16 8 -35z m80 25 c0 -5 -2 -10 -4 -10 -3 0 -8 5 -11 10
-3 6 -1 10 4 10 6 0 11 -4 11 -10z m80 -25 c0 -19 -2 -35 -4 -35 -2 0 -6 16
-8 35 -2 19 0 35 4 35 4 0 8 -16 8 -35z m128 -11 c-3 -27 -4 -26 -9 8 -3 22
-1 34 4 29 5 -5 7 -21 5 -37z m1962 11 c0 -19 -2 -35 -4 -35 -2 0 -6 16 -8 35
-2 19 0 35 4 35 4 0 8 -16 8 -35z m222 -2 c-2 -18 -5 -33 -7 -33 -2 0 -5 15
-7 33 -2 20 1 34 7 34 6 0 9 -14 7 -34z m38 2 c0 -19 -2 -35 -4 -35 -2 0 -6
16 -8 35 -2 19 0 35 4 35 4 0 8 -16 8 -35z m38 15 c-7 -10 -14 -18 -15 -16 -6
6 9 36 18 36 5 0 4 -9 -3 -20z m79 -32 c-2 -13 -4 -5 -4 17 -1 22 1 32 4 23 2
-10 2 -28 0 -40z m51 6 c-3 -27 -4 -26 -9 8 -3 22 -1 34 4 29 5 -5 7 -21 5
-37z m122 11 c0 -19 -2 -35 -4 -35 -2 0 -6 16 -8 35 -2 19 0 35 4 35 4 0 8
-16 8 -35z m1960 25 c0 -5 -2 -10 -4 -10 -3 0 -8 5 -11 10 -3 6 -1 10 4 10 6
0 11 -4 11 -10z m37 -42 c-2 -13 -4 -5 -4 17 -1 22 1 32 4 23 2 -10 2 -28 0
-40z m38 43 c-3 -6 4 -15 15 -21 11 -6 20 -15 20 -21 0 -15 -30 -23 -42 -11
-8 8 -5 9 11 5 27 -7 28 13 1 22 -20 6 -25 16 -13 28 10 10 15 8 8 -2z m102
-43 c-2 -13 -4 -5 -4 17 -1 22 1 32 4 23 2 -10 2 -28 0 -40z m91 6 c-3 -27 -4
-26 -9 8 -3 22 -1 34 4 29 5 -5 7 -21 5 -37z m35 31 c-3 -9 -8 -14 -10 -11 -3
3 -2 9 2 15 9 16 15 13 8 -4z m45 -26 c-2 -18 -9 -24 -27 -24 -13 0 -25 6 -27
13 -1 7 0 8 3 2 2 -5 14 -10 25 -10 17 0 20 5 16 30 -3 19 -1 27 5 21 5 -5 7
-19 5 -32z m29 -11 c-2 -13 -4 -5 -4 17 -1 22 1 32 4 23 2 -10 2 -28 0 -40z
m51 6 c-3 -27 -4 -26 -9 8 -3 22 -1 34 4 29 5 -5 7 -21 5 -37z m122 36 c0 -5
-2 -10 -4 -10 -3 0 -8 5 -11 10 -3 6 -1 10 4 10 6 0 11 -4 11 -10z m2178 -36
c-3 -27 -4 -26 -9 8 -3 22 -1 34 4 29 5 -5 7 -21 5 -37z m122 20 c0 -8 -10
-14 -26 -14 -15 0 -23 -4 -18 -11 3 -6 15 -8 27 -5 15 4 17 2 8 -7 -14 -14
-44 2 -49 25 -2 12 4 14 24 10 23 -4 26 -2 21 12 -4 10 -3 15 3 11 6 -3 10
-13 10 -21z m-7765 -14 c3 -5 -4 -6 -15 -3 -11 3 -22 9 -25 13 -3 5 4 6 15 3
11 -3 22 -9 25 -13z m217 -17 c16 5 18 3 9 -6 -15 -15 -45 3 -48 29 -2 14 0
12 7 -5 8 -17 16 -22 32 -18z m2293 6 c0 -8 -10 -15 -23 -15 -18 -1 -19 -1 -2
3 23 5 27 23 6 23 -8 0 -18 4 -21 10 -4 6 2 7 17 1 13 -4 23 -15 23 -22z m235
-4 c-14 -17 -36 -20 -44 -6 -4 5 3 7 15 4 15 -4 22 0 26 18 4 13 8 18 11 11 2
-7 -2 -19 -8 -27z m4863 18 c-18 -7 -16 -21 5 -26 15 -4 15 -5 0 -6 -9 0 -20
4 -23 9 -8 13 3 30 18 29 9 0 9 -2 0 -6z m-7627 -31 c-10 -2 -22 0 -28 6 -6 6
0 7 19 4 21 -5 23 -7 9 -10z m1562 -925 c2 -12 -3 -17 -17 -17 -12 0 -21 6
-21 13 0 31 32 34 38 4z m-2108 3 c0 -5 6 -10 14 -10 8 0 18 -9 21 -20 5 -15
-4 -30 -35 -59 -42 -39 -42 -39 -25 -65 10 -14 24 -26 32 -26 8 0 11 -4 8 -10
-3 -5 -42 -10 -86 -10 -46 0 -79 4 -79 10 0 6 6 10 13 10 8 0 19 11 26 24 12
21 10 28 -9 54 -13 17 -29 33 -37 36 -21 8 -16 47 7 53 11 3 20 9 20 14 0 5
29 9 65 9 37 0 65 -4 65 -10z m278 -6 c15 -10 22 -25 22 -49 0 -41 -20 -62
-65 -71 -30 -5 -35 -10 -35 -35 0 -22 -5 -29 -20 -29 -19 0 -20 7 -20 100 l0
100 48 0 c27 0 57 -7 70 -16z m1160 4 c17 -17 15 -48 -5 -70 -16 -17 -16 -20
0 -35 11 -11 17 -13 17 -5 0 7 9 12 20 12 21 0 26 -16 10 -40 -6 -10 -4 -20 6
-31 14 -16 10 -17 -55 -18 -51 0 -74 4 -86 15 -19 19 -20 58 -1 73 10 8 13 23
9 47 -3 20 -1 40 7 49 15 18 61 20 78 3z m242 8 c0 -2 16 -47 35 -100 l35 -96
-24 0 c-17 0 -26 7 -30 25 -5 21 -12 25 -41 25 -29 0 -36 -4 -41 -25 -4 -18
-13 -25 -30 -25 -13 0 -24 2 -24 4 0 3 14 42 30 88 17 46 33 89 35 96 4 10 55
18 55 8z m270 -24 c0 -26 3 -28 30 -24 47 7 60 -11 60 -84 0 -57 -2 -64 -20
-64 -16 0 -19 8 -22 58 -3 49 -6 57 -23 57 -17 0 -20 -8 -23 -57 -3 -50 -6
-58 -22 -58 -19 0 -20 8 -20 100 0 93 1 100 20 100 15 0 20 -7 20 -28z m1230
-2 c0 -11 7 -20 15 -20 8 0 15 -7 15 -15 0 -8 -7 -15 -15 -15 -11 0 -15 -12
-15 -45 0 -48 4 -51 44 -35 16 6 27 6 31 0 9 -14 47 -12 43 1 -2 7 -19 17 -38
23 -65 21 -49 86 20 86 43 0 74 -25 49 -40 -8 -6 -18 -5 -23 0 -14 14 -48 12
-44 -2 3 -7 19 -16 36 -20 17 -5 37 -18 43 -29 25 -48 -66 -84 -111 -44 -18
16 -20 16 -20 2 0 -12 -9 -17 -29 -17 -34 0 -41 14 -41 76 0 24 -4 44 -10 44
-5 0 -10 7 -10 15 0 8 5 15 10 15 6 0 10 9 10 20 0 13 7 20 20 20 13 0 20 -7
20 -20z m-2770 -33 c0 -7 -10 -17 -22 -22 -19 -8 -24 -19 -26 -62 -3 -45 -6
-53 -23 -53 -17 0 -19 7 -19 74 l0 74 45 0 c28 0 45 -4 45 -11z m130 -9 c38
-41 16 -123 -35 -129 -36 -5 -71 10 -83 36 -17 37 -15 59 9 89 27 34 79 36
109 4z m128 10 c9 -9 12 -9 12 0 0 7 7 12 15 12 12 0 15 -17 15 -89 0 -102
-10 -121 -64 -121 -41 0 -78 25 -57 39 9 6 21 5 31 -1 21 -13 50 -4 50 15 0 9
-9 12 -29 9 -59 -8 -94 71 -55 126 17 24 62 30 82 10z m162 -3 c0 -7 -11 -16
-25 -19 -23 -6 -25 -11 -25 -61 0 -48 -2 -55 -20 -55 -18 0 -20 7 -20 74 l0
74 45 0 c30 0 45 -4 45 -13z m120 -5 c11 -11 20 -31 20 -45 0 -23 -3 -25 -51
-25 -36 0 -49 -4 -46 -12 3 -9 21 -12 50 -11 37 2 45 0 41 -11 -7 -19 -59 -37
-82 -29 -36 13 -52 36 -52 75 0 47 28 78 70 78 17 0 39 -9 50 -20z m146 5 c16
-13 17 -16 4 -24 -9 -7 -18 -7 -24 -1 -14 14 -48 12 -44 -1 2 -7 19 -17 38
-23 30 -9 35 -16 35 -41 0 -39 -38 -60 -83 -44 -36 12 -48 35 -24 44 9 3 18 1
20 -4 2 -6 15 -11 29 -11 35 0 24 20 -17 34 -38 12 -51 45 -30 72 16 18 71 18
96 -1z m145 -1 c10 -13 10 -17 -2 -24 -8 -6 -18 -5 -23 0 -14 14 -48 12 -44
-2 3 -7 19 -16 36 -20 17 -5 37 -18 43 -29 26 -50 -69 -85 -112 -42 l-21 20
21 6 c12 3 24 1 27 -4 8 -13 46 -11 42 2 -2 7 -19 17 -38 23 -38 12 -51 45
-30 72 17 19 84 18 101 -2z m631 -1 c10 -9 18 -20 18 -25 0 -12 -27 -10 -49 4
-35 21 -63 -20 -45 -66 7 -18 39 -22 49 -6 7 12 45 13 45 2 0 -20 -42 -45 -72
-44 -94 3 -90 152 4 152 17 0 40 -7 50 -17z m238 -58 c0 -68 -2 -75 -20 -75
-18 0 -20 7 -20 75 0 68 2 75 20 75 18 0 20 -7 20 -75z m139 49 c12 -15 21
-35 21 -45 0 -16 -8 -19 -51 -19 -36 0 -49 -4 -46 -12 3 -8 19 -12 46 -10 43
2 52 -7 25 -28 -45 -38 -118 2 -118 64 0 72 80 105 123 50z m78 -30 l17 -56
19 56 c14 42 23 56 38 56 24 0 24 5 -7 -79 -22 -59 -30 -71 -49 -71 -19 0 -27
12 -49 71 -31 84 -31 79 -7 79 15 0 24 -13 38 -56z m215 39 c8 -10 18 -30 22
-45 6 -28 6 -28 -48 -28 -47 0 -54 -3 -49 -16 5 -13 15 -15 49 -9 44 6 56 -3
32 -23 -34 -27 -99 -14 -116 23 -17 37 -15 59 9 89 25 31 77 36 101 9z m78 5
c0 -9 3 -9 12 0 15 15 55 16 64 1 4 -8 9 -8 17 0 18 18 65 13 77 -8 5 -11 10
-45 10 -75 0 -49 -3 -56 -20 -56 -16 0 -19 8 -22 58 -3 49 -6 57 -23 57 -17 0
-20 -8 -23 -57 -3 -50 -6 -58 -22 -58 -17 0 -20 7 -20 55 0 42 -4 57 -16 62
-23 8 -34 -14 -34 -69 0 -41 -3 -48 -20 -48 -18 0 -20 7 -20 75 0 68 2 75 20
75 11 0 20 -5 20 -12z m319 -14 c12 -15 21 -35 21 -45 0 -16 -8 -19 -51 -19
-36 0 -49 -4 -46 -12 3 -8 19 -12 46 -10 43 2 52 -7 25 -28 -45 -38 -118 2
-118 64 0 72 80 105 123 50z m71 14 c0 -9 3 -9 12 0 17 17 54 15 72 -4 11 -10
16 -34 16 -75 0 -52 -2 -59 -20 -59 -18 0 -20 7 -20 55 0 40 -4 57 -15 61 -27
11 -45 -16 -45 -67 0 -42 -3 -49 -20 -49 -18 0 -20 7 -20 75 0 68 2 75 20 75
11 0 20 -5 20 -12z m-2297 -305 c-8 -3 -13 -26 -14 -61 l-2 -57 -7 45 c-9 55
-3 80 19 79 10 0 11 -2 4 -6z m-815 -10 c-14 -3 -18 -16 -20 -56 l-2 -52 -3
52 c-3 44 -7 52 -26 56 -12 2 -2 4 23 4 25 1 37 -1 28 -4z m305 -36 c19 16 20
16 8 0 -12 -15 -11 -20 4 -37 10 -11 16 -23 12 -26 -3 -3 -12 3 -19 15 -17 27
-26 27 -31 -1 -2 -13 -4 4 -4 37 0 33 2 45 4 27 4 -34 5 -34 26 -15z m1074
-39 c-2 -18 -4 -6 -4 27 0 33 2 48 4 33 2 -15 2 -42 0 -60z m933 29 c0 -47 -2
-53 -22 -54 -29 -3 -48 14 -48 43 0 26 34 51 45 34 4 -6 3 -10 -2 -9 -26 4
-34 -3 -31 -28 2 -20 9 -28 23 -28 17 0 20 8 23 48 4 63 12 60 12 -6z m267
-29 c-2 -18 -4 -6 -4 27 0 33 2 48 4 33 2 -15 2 -42 0 -60z m230 22 c4 0 15 8
26 18 19 16 19 16 6 -5 -11 -19 -11 -25 6 -45 19 -22 19 -22 -7 1 l-28 24 -9
-24 c-8 -19 -10 -12 -9 36 1 33 3 45 5 28 2 -18 7 -33 10 -33z m322 35 c26 8
43 -18 38 -57 l-4 -33 -1 37 c-1 20 -7 40 -12 43 -17 11 -39 -14 -43 -48 -2
-18 -4 -5 -4 28 0 33 1 52 4 42 3 -12 11 -16 22 -12z m714 -33 c-4 -23 -1 -37
8 -44 12 -8 11 -9 -1 -5 -11 2 -16 20 -18 58 -1 36 1 49 7 40 5 -8 7 -30 4
-49z m-3785 25 c-9 -7 -18 -29 -21 -48 -4 -32 -4 -32 -5 8 -2 32 2 43 16 46
27 7 28 7 10 -6z m80 1 c7 -7 12 -26 12 -43 0 -26 -4 -31 -27 -33 -15 -1 -30
3 -34 10 -10 16 9 38 33 38 11 0 18 5 15 13 -2 6 -15 11 -28 9 -19 -2 -21 0
-9 8 19 13 24 12 38 -2z m86 6 c9 -3 16 -11 16 -16 0 -6 -6 -5 -15 2 -12 10
-18 10 -30 0 -9 -8 -15 -8 -15 -2 0 6 6 13 13 15 6 3 13 6 14 6 1 1 8 -2 17
-5z m320 -10 c29 -29 13 -74 -26 -74 -17 0 -45 37 -35 47 3 2 8 -5 12 -17 9
-28 49 -24 53 6 4 29 -23 51 -43 34 -9 -8 -15 -8 -15 -2 0 9 15 19 32 21 4 1
14 -6 22 -15z m153 -1 c-8 -10 -17 -31 -20 -48 -3 -24 -4 -22 -6 12 -1 32 3
43 17 46 9 3 19 5 21 6 2 0 -3 -7 -12 -16z m241 -37 c-1 -40 -1 -40 -5 -6 -3
19 -9 41 -15 48 -8 9 -7 11 6 6 12 -4 16 -17 14 -48z m80 42 c7 -7 12 -26 12
-43 0 -26 -4 -31 -27 -33 -15 -1 -30 3 -34 10 -10 16 9 38 33 38 11 0 18 5 15
13 -2 6 -15 11 -28 9 -19 -2 -21 0 -9 8 19 13 24 12 38 -2z m98 -39 c1 -35 1
-37 -3 -9 -3 19 -10 41 -16 49 -10 11 -9 13 3 9 10 -3 15 -19 16 -49z m61 36
c-11 -8 -17 -23 -15 -37 2 -19 9 -23 33 -21 28 1 29 1 8 -9 -43 -21 -77 47
-35 71 25 15 30 13 9 -4z m147 9 c11 -4 16 -18 15 -48 -1 -22 -4 -31 -6 -18
-3 14 -12 22 -24 22 -23 0 -26 -26 -4 -33 11 -4 10 -4 -2 -3 -28 2 -23 40 5
44 26 4 24 28 -1 26 -9 -1 -14 2 -11 7 6 11 8 11 28 3z m193 -9 c-25 -18 -19
-60 8 -60 16 0 20 7 20 32 0 17 3 29 7 26 5 -2 8 -17 8 -33 0 -33 -31 -50 -55
-30 -20 17 -19 57 3 69 25 15 30 13 9 -4z m191 2 c-9 -7 -18 -29 -21 -48 -4
-32 -4 -32 -5 8 -2 32 2 43 16 46 27 7 28 7 10 -6z m91 -1 c7 -8 11 -30 8 -48
l-4 -33 -1 36 c-3 63 -45 58 -55 -6 -3 -24 -4 -21 -6 13 0 25 3 41 8 37 5 -3
12 -1 16 5 9 14 20 13 34 -4z m89 2 c22 -22 13 -38 -19 -38 -20 0 -29 -4 -26
-12 2 -7 16 -13 30 -13 14 1 23 -3 21 -7 -15 -24 -64 2 -64 32 0 13 7 15 31
12 24 -4 30 -1 27 9 -3 8 -16 13 -29 11 -19 -2 -21 0 -9 8 19 13 24 12 38 -2z
m220 0 c7 -7 12 -26 12 -43 0 -26 -4 -31 -27 -33 -15 -1 -30 3 -34 10 -10 16
9 38 33 38 11 0 18 5 15 13 -2 6 -15 11 -28 9 -19 -2 -21 0 -9 8 19 13 24 12
38 -2z m100 -42 c-1 -40 -1 -40 -5 -6 -3 19 -9 41 -15 48 -8 9 -7 11 6 6 12
-4 16 -17 14 -48z m330 0 c-1 -40 -1 -40 -5 -6 -3 19 -9 41 -15 48 -8 9 -7 11
6 6 12 -4 16 -17 14 -48z m123 44 c22 -13 25 -52 4 -70 -20 -17 -49 -9 -53 15
-4 20 -3 20 11 1 17 -23 47 -15 47 12 0 11 -7 26 -16 33 -14 11 -18 10 -30 -6
-8 -10 -14 -14 -14 -9 0 10 20 34 28 34 2 0 12 -5 23 -10z m100 -7 c13 -16 12
-17 -3 -4 -23 17 -50 -2 -46 -33 2 -16 9 -21 31 -19 15 1 25 -2 22 -8 -9 -13
-39 -11 -53 3 -17 17 -15 44 4 62 20 20 28 20 45 -1z m219 -14 c0 -14 -7 -19
-25 -19 -28 0 -35 -25 -10 -33 11 -4 10 -4 -2 -3 -27 2 -23 40 5 44 25 4 28
12 10 31 -11 10 -10 11 5 6 9 -4 17 -16 17 -26z m91 14 c13 -16 12 -17 -3 -4
-23 17 -50 -2 -46 -33 2 -16 9 -21 31 -19 15 1 25 -2 22 -8 -9 -13 -39 -11
-53 3 -17 17 -15 44 4 62 20 20 28 20 45 -1z m213 11 c9 -3 16 -11 16 -16 0
-6 -6 -5 -15 2 -12 10 -18 10 -30 0 -9 -8 -15 -8 -15 -2 0 6 6 13 13 15 6 3
13 6 14 6 1 1 8 -2 17 -5z m196 -29 c0 -10 -10 -15 -31 -15 -20 0 -29 -4 -26
-12 2 -7 16 -12 31 -11 14 1 24 -2 21 -8 -9 -13 -39 -11 -53 3 -18 18 -15 56
5 67 21 11 53 -3 53 -24z m75 25 c5 -8 11 -7 20 0 15 13 35 6 35 -12 0 -7 -4
-7 -14 1 -17 15 -33 -3 -39 -44 -4 -28 -4 -27 -6 7 -2 62 -34 57 -44 -7 -3
-24 -4 -21 -6 13 0 25 3 41 8 37 5 -3 12 -1 16 5 8 13 22 13 30 0z m143 -2
c22 -22 13 -38 -19 -38 -20 0 -29 -4 -26 -12 2 -7 16 -13 30 -13 14 1 23 -3
21 -7 -15 -24 -64 2 -64 32 0 13 7 15 31 12 24 -4 30 -1 27 9 -3 8 -16 13 -29
11 -19 -2 -21 0 -9 8 19 13 24 12 38 -2z m100 -42 c-1 -40 -1 -40 -5 -6 -3 19
-9 41 -15 48 -8 9 -7 11 6 6 12 -4 16 -17 14 -48z m126 45 c3 -5 -2 -8 -11 -7
-27 2 -26 -21 2 -28 18 -5 25 -12 23 -24 -4 -20 -36 -28 -51 -13 -7 7 -4 8 10
5 31 -8 38 14 9 26 -27 10 -35 35 -13 43 19 8 25 8 31 -2z m-3505 -46 c0 -5
-4 -3 -9 5 -5 8 -9 22 -9 30 0 16 17 -16 18 -35z m31 8 c-11 -17 -11 -17 -6 0
3 10 6 24 7 30 0 9 2 9 5 0 3 -7 0 -20 -6 -30z m158 -30 c14 -12 14 -13 0 -13
-19 0 -29 21 -27 58 2 26 2 25 6 -3 2 -16 12 -36 21 -42z m42 26 c0 -22 -4
-38 -8 -35 -8 5 -4 76 4 76 2 0 4 -18 4 -41z m197 -21 c-2 -13 -4 -3 -4 22 0
25 2 35 4 23 2 -13 2 -33 0 -45z m45 22 c-2 -22 -6 -40 -8 -40 -2 0 -4 18 -4
40 0 22 3 40 8 40 4 0 6 -18 4 -40z m175 -22 c-2 -13 -4 -3 -4 22 0 25 2 35 4
23 2 -13 2 -33 0 -45z m180 0 c-2 -13 -4 -3 -4 22 0 25 2 35 4 23 2 -13 2 -33
0 -45z m213 7 c0 -30 -3 -55 -7 -55 -5 0 -6 25 -5 55 5 71 12 71 12 0z m158
-13 c11 2 19 17 23 38 l6 35 2 -41 c1 -39 -1 -41 -26 -40 -25 1 -28 5 -29 36
l-1 35 4 -33 c3 -25 9 -32 21 -30z m350 37 c6 17 13 31 16 31 3 0 -3 -24 -14
-52 -11 -29 -20 -54 -20 -55 0 -2 -5 -3 -11 -3 -8 0 -8 4 0 14 9 11 8 23 -4
51 -20 50 -18 58 4 16 l18 -34 11 32z m194 -9 c-2 -22 -6 -40 -8 -40 -2 0 -4
18 -4 40 0 22 3 40 8 40 4 0 6 -18 4 -40z m246 -27 c14 -12 14 -13 0 -13 -19
0 -29 21 -27 58 2 26 2 25 6 -3 2 -16 12 -36 21 -42z m42 26 c0 -22 -4 -38 -8
-35 -8 5 -4 76 4 76 2 0 4 -18 4 -41z m42 1 c-2 -22 -6 -40 -8 -40 -2 0 -4 18
-4 40 0 22 3 40 8 40 4 0 6 -18 4 -40z m715 -22 c-2 -13 -4 -3 -4 22 0 25 2
35 4 23 2 -13 2 -33 0 -45z m138 30 l14 -33 12 33 c6 18 13 31 16 29 2 -3 -3
-22 -12 -42 -8 -21 -17 -36 -19 -34 -8 8 -35 79 -30 79 3 0 11 -15 19 -32z
m407 -8 c-2 -22 -6 -40 -8 -40 -2 0 -4 18 -4 40 0 22 3 40 8 40 4 0 6 -18 4
-40z m-3535 -27 c12 2 20 0 17 -4 -15 -25 -66 6 -63 38 0 4 5 -2 12 -15 8 -17
17 -22 34 -19z m3061 28 c-29 -5 -35 -9 -29 -20 5 -8 18 -12 30 -8 12 3 19 1
15 -4 -9 -16 -43 -10 -54 10 -15 29 -13 31 33 30 l42 -2 -37 -6z m-2838 -29
c0 -16 -28 -47 -36 -39 -4 4 -2 7 4 7 7 0 12 9 12 20 0 11 5 20 10 20 6 0 10
-4 10 -8z m414 -518 c29 -29 12 -64 -31 -64 -16 0 -23 -6 -23 -20 0 -11 -4
-20 -10 -20 -6 0 -10 27 -10 60 0 60 0 60 29 60 16 0 37 -7 45 -16z m2211 -11
c5 -15 4 -16 -6 -5 -23 22 -58 15 -65 -13 -13 -50 22 -81 56 -50 11 10 20 14
20 9 0 -17 -23 -34 -45 -34 -12 0 -26 5 -33 12 -13 13 -16 56 -6 82 9 23 70
21 79 -1z m68 -10 c20 2 22 -3 23 -43 1 -39 1 -40 -3 -7 -3 28 -9 37 -23 37
-14 0 -20 -9 -23 -37 -2 -24 -4 -16 -4 22 0 33 1 52 4 43 3 -11 13 -17 26 -15z
m154 -55 c-2 -18 -4 -6 -4 27 0 33 2 48 4 33 2 -15 2 -42 0 -60z m40 0 c-2
-18 -4 -6 -4 27 0 33 2 48 4 33 2 -15 2 -42 0 -60z m2143 73 c0 -4 -11 -6 -24
-4 -38 8 -39 -13 -1 -36 38 -22 42 -32 21 -51 -19 -15 -58 -9 -64 10 -5 13 -3
13 11 1 9 -7 24 -11 32 -7 18 7 20 36 2 36 -24 0 -51 26 -44 44 7 17 67 24 67
7z m52 -43 c-1 -24 3 -45 10 -50 9 -5 8 -8 -4 -8 -14 0 -18 8 -18 35 0 19 -5
35 -10 35 -6 0 -5 8 2 20 17 26 22 18 20 -32z m309 8 c10 9 19 12 19 6 0 -6
-5 -14 -11 -17 -7 -5 -4 -14 7 -26 9 -11 15 -22 11 -25 -3 -3 -12 3 -19 15
-17 27 -26 27 -31 -1 -2 -13 -4 4 -4 37 0 33 2 45 4 27 4 -33 5 -33 24 -16z
m1670 -11 c10 -27 16 -51 14 -53 -2 -3 -7 3 -11 12 -8 21 -64 22 -64 1 0 -8
-4 -15 -10 -15 -5 0 -1 24 10 53 11 28 20 54 20 55 0 2 5 2 11 0 6 -2 20 -26
30 -53z m157 27 c29 4 42 -12 41 -50 l-2 -37 -6 35 c-4 26 -11 35 -26 35 -15
0 -22 -9 -26 -35 -5 -27 -6 -22 -7 25 0 33 2 52 5 42 3 -10 12 -17 21 -15z
m731 -10 c-13 -5 -11 -46 4 -61 10 -11 9 -13 -3 -9 -16 5 -29 60 -22 91 4 17
5 17 18 0 7 -10 8 -19 3 -21z m-7459 8 c0 -4 -7 -10 -15 -14 -9 -3 -15 -18
-15 -36 0 -16 -4 -30 -10 -30 -5 0 -10 20 -10 44 0 40 2 44 25 44 14 0 25 -4
25 -8z m78 -2 c16 -16 15 -53 -2 -68 -21 -17 -58 -8 -67 16 -15 43 38 83 69
52z m102 -42 c0 -59 -16 -82 -50 -71 -29 9 -25 27 5 19 15 -4 25 -2 25 5 0 6
-8 11 -18 11 -24 0 -42 19 -42 45 0 29 19 45 52 45 27 0 28 -2 28 -54z m70 44
c0 -4 -7 -10 -15 -14 -9 -3 -15 -18 -15 -36 0 -16 -4 -30 -10 -30 -5 0 -10 20
-10 44 0 40 2 44 25 44 14 0 25 -4 25 -8z m78 -2 c21 -21 13 -38 -18 -38 -16
0 -30 -4 -30 -9 0 -13 28 -22 35 -10 4 5 11 7 16 3 16 -10 -1 -24 -31 -24 -28
0 -40 15 -40 49 0 21 19 41 40 41 9 0 21 -5 28 -12z m90 -7 c3 -9 -2 -11 -17
-6 -12 4 -21 2 -21 -4 0 -6 6 -11 13 -11 19 0 36 -20 30 -36 -5 -14 -54 -20
-66 -8 -12 12 5 25 18 14 9 -8 15 -8 20 0 3 5 2 10 -2 10 -5 0 -18 6 -28 14
-17 12 -17 16 -5 30 15 19 51 18 58 -3z m83 3 c11 -13 9 -14 -14 -9 -34 9 -35
-2 -1 -15 37 -14 28 -44 -14 -48 -24 -2 -32 1 -32 12 0 19 11 21 27 5 7 -7 13
-8 17 0 4 6 -4 13 -19 17 -24 6 -34 32 -18 47 12 12 40 7 54 -9z m1803 10 c11
-4 16 -19 16 -44 0 -34 -2 -37 -27 -36 -36 1 -40 39 -5 44 31 5 22 28 -9 24
-19 -2 -21 -1 -9 7 18 13 15 12 34 5z m196 -29 c0 -10 -10 -15 -31 -15 -20 0
-29 -4 -26 -12 2 -7 16 -12 31 -11 14 1 24 -2 21 -8 -9 -13 -39 -11 -53 3 -18
18 -15 56 5 67 21 11 53 -3 53 -24z m88 -19 l-1 -41 -4 38 c-3 29 -9 37 -24
37 -15 0 -19 -7 -19 -35 0 -19 -4 -35 -10 -35 -5 0 -10 18 -10 39 0 33 4 40
23 43 39 7 47 -2 45 -46z m77 44 c4 -6 11 -8 16 -4 6 4 9 -14 7 -48 -3 -47 -6
-53 -27 -56 -13 -2 -27 0 -32 5 -5 5 3 9 18 8 14 0 28 6 31 14 3 10 0 12 -12
8 -29 -11 -46 3 -46 38 0 37 30 60 45 35z m109 -6 c24 -23 19 -34 -15 -34 -20
0 -29 -4 -26 -12 2 -7 14 -13 26 -12 13 0 18 -3 12 -9 -5 -5 -17 -7 -27 -5
-23 4 -31 52 -13 74 15 18 24 18 43 -2z m86 5 c13 -9 13 -10 -1 -6 -9 3 -22 1
-30 -3 -10 -7 -6 -11 15 -19 18 -7 26 -17 24 -28 -4 -21 -36 -29 -52 -13 -8 9
-4 10 17 5 35 -9 37 12 2 25 -26 10 -34 35 -12 43 18 8 21 8 37 -4z m1810 1
c0 -5 -7 -10 -15 -10 -10 0 -15 -11 -15 -35 0 -19 -4 -35 -10 -35 -5 0 -10 18
-10 39 0 29 5 41 18 44 29 8 32 7 32 -3z m68 -2 c21 -21 13 -38 -18 -38 -23 0
-28 -4 -23 -16 4 -11 13 -14 30 -9 16 4 22 2 18 -5 -8 -14 -38 -13 -53 2 -18
18 -15 55 6 67 22 13 26 13 40 -1z m90 0 c7 -7 12 -26 12 -43 0 -30 -3 -32
-32 -31 -46 1 -52 34 -9 42 17 4 31 10 31 14 0 14 -27 19 -39 7 -8 -8 -11 -8
-11 0 0 10 14 20 31 22 3 1 10 -4 17 -11z m177 1 c4 -6 0 -9 -10 -7 -29 5 -28
-19 0 -26 35 -9 30 -40 -8 -44 -15 -2 -27 1 -27 6 0 5 8 8 18 8 24 -1 27 18 2
22 -22 4 -28 37 -7 45 19 8 25 8 32 -4z m1661 -4 c10 -8 14 -15 7 -15 -6 0
-14 4 -18 10 -12 19 -36 -2 -33 -29 2 -20 8 -26 26 -25 14 0 19 -3 13 -9 -5
-5 -17 -7 -27 -5 -23 4 -31 52 -13 74 14 18 20 18 45 -1z m228 -1 c24 -23 19
-34 -15 -34 -20 0 -29 -4 -26 -12 2 -7 13 -13 25 -12 12 0 19 -3 16 -8 -16
-25 -64 6 -64 41 0 12 28 41 40 41 5 0 16 -7 24 -16z m174 4 c21 -21 13 -38
-18 -38 -23 0 -28 -4 -23 -16 4 -11 13 -14 30 -9 16 4 22 2 18 -5 -8 -14 -38
-13 -53 2 -18 18 -15 55 6 67 22 13 26 13 40 -1z m148 -38 c1 -39 1 -40 -3 -7
-3 28 -9 37 -24 37 -15 0 -19 -8 -21 -37 l-1 -38 -4 38 c-3 28 -9 37 -23 37
-14 0 -20 -9 -23 -37 l-4 -38 -1 42 c-2 45 2 48 67 48 36 0 36 0 37 -45z m88
34 c24 -23 19 -34 -15 -34 -20 0 -29 -4 -26 -12 2 -7 14 -13 26 -12 13 0 18
-3 12 -9 -5 -5 -17 -7 -27 -5 -23 4 -31 52 -13 74 15 18 24 18 43 -2z m105
-43 l-2 -36 -6 35 c-4 26 -11 35 -26 35 -15 0 -22 -9 -26 -35 l-6 -35 -2 42
c-1 36 2 42 22 45 33 6 47 -10 46 -51z m125 50 c3 -5 -2 -8 -11 -7 -25 2 -27
-22 -1 -26 15 -2 23 -10 23 -23 0 -22 -31 -33 -48 -16 -7 7 -4 8 10 5 31 -8
38 14 9 26 -27 10 -35 35 -13 43 19 8 25 8 31 -2z m-727 -63 c-2 -13 -4 -3 -4
22 0 25 2 35 4 23 2 -13 2 -33 0 -45z m140 30 l10 -33 13 33 c7 18 14 31 17
28 7 -7 -17 -76 -26 -76 -4 0 -15 18 -24 40 -8 22 -12 40 -8 40 5 0 13 -15 18
-32z m1222 -497 c37 -37 39 -124 4 -163 -23 -25 -87 -24 -113 2 -29 29 -28
125 2 157 27 29 80 31 107 4z m-9139 -56 c0 -54 0 -55 30 -55 17 0 30 -4 30
-10 0 -5 -20 -10 -45 -10 l-45 0 0 65 c0 51 3 65 15 65 12 0 15 -13 15 -55z
m420 -10 c0 -51 -3 -65 -15 -65 -12 0 -15 14 -15 65 0 51 3 65 15 65 12 0 15
-14 15 -65z m120 0 c0 -51 -3 -65 -15 -65 -11 0 -15 12 -15 51 0 41 -3 50 -15
45 -9 -3 -15 0 -15 8 0 19 10 26 37 26 22 0 23 -4 23 -65z m-386 13 c23 -32
20 -38 -19 -38 -19 0 -35 -5 -35 -11 0 -7 11 -9 31 -5 22 4 29 2 27 -7 -6 -17
-56 -21 -74 -6 -17 14 -19 60 -2 77 19 19 55 14 72 -10z m56 -10 l13 -33 10
33 c5 17 16 32 23 32 18 0 17 -5 -2 -57 -21 -54 -45 -57 -63 -5 -8 20 -16 43
-18 50 -3 6 2 12 10 12 8 0 21 -15 27 -32z m148 20 c7 -7 12 -20 12 -30 0 -14
-8 -18 -36 -18 -22 0 -33 -4 -29 -11 4 -6 19 -7 37 -4 23 6 29 4 26 -6 -6 -19
-69 -24 -79 -7 -13 19 -11 62 3 76 7 7 21 12 33 12 12 0 26 -5 33 -12z m-313
-253 c0 -49 -1 -50 -32 -53 l-33 -3 0 56 0 56 33 -3 c31 -3 32 -4 32 -53z m89
19 c24 -23 19 -34 -14 -34 -21 0 -30 -5 -30 -16 0 -12 7 -15 26 -11 16 3 22 1
16 -5 -6 -6 -18 -8 -28 -6 -23 4 -31 52 -13 74 15 18 24 18 43 -2z m81 6 c4
-6 3 -10 -2 -9 -36 6 -48 -41 -15 -60 9 -6 12 -11 7 -11 -34 -1 -47 62 -17 79
21 13 20 13 27 1z m153 -44 c-1 -40 -1 -40 -5 -6 -3 19 -9 41 -15 48 -8 9 -7
11 6 6 12 -4 16 -17 14 -48z m91 40 c7 -8 11 -30 8 -48 l-4 -33 -1 36 c-3 63
-45 58 -55 -6 -3 -24 -4 -21 -6 13 0 25 3 41 8 37 5 -3 12 -1 16 5 9 14 20 13
34 -4z m89 2 c22 -22 13 -38 -19 -38 -20 0 -29 -4 -26 -12 2 -7 16 -13 30 -13
14 1 23 -3 21 -7 -15 -24 -64 2 -64 32 0 13 7 15 31 12 24 -4 30 -1 27 9 -3 8
-16 13 -29 11 -19 -2 -21 0 -9 8 19 13 24 12 38 -2z m69 0 c-9 -7 -18 -29 -20
-48 -4 -34 -4 -34 -5 7 -2 39 5 50 32 52 6 1 2 -5 -7 -11z m-381 -94 c-3 -8
-18 -13 -33 -13 l-28 2 28 4 c19 3 27 10 26 21 -1 9 0 33 2 52 2 33 3 32 6 -9
3 -24 2 -50 -1 -57z m41 34 c-2 -13 -4 -3 -4 22 0 25 2 35 4 23 2 -13 2 -33 0
-45z m45 22 c-2 -22 -6 -40 -8 -40 -2 0 -4 18 -4 40 0 22 3 40 8 40 4 0 6 -18
4 -40z m8396 3 c-14 -3 -18 -16 -20 -51 l-2 -47 -3 47 c-3 33 -9 48 -21 51 -9
3 1 5 23 5 22 0 32 -2 23 -5z m229 -70 c-2 -16 -4 -3 -4 27 0 30 2 43 4 28 2
-16 2 -40 0 -55z m113 49 c12 11 12 11 2 -3 -9 -12 -9 -20 3 -35 8 -10 15 -23
15 -29 0 -5 -7 1 -16 14 l-17 24 -20 -24 -19 -24 16 28 c15 25 15 29 0 55
l-16 27 19 -23 c15 -19 21 -20 33 -10z m78 21 c-12 -3 -18 -18 -21 -51 l-3
-47 -2 53 c-2 48 0 52 21 51 16 -1 17 -3 5 -6z m-306 -50 c-3 -15 1 -29 9 -35
12 -8 11 -9 -1 -5 -10 2 -16 19 -18 48 -1 28 1 39 6 31 5 -7 7 -25 4 -39z
m334 12 c-3 -8 -11 -15 -18 -14 -10 0 -10 2 0 6 6 2 12 14 13 26 0 12 3 16 6
9 3 -7 2 -19 -1 -27z m-418 -5 c-7 -10 -14 -18 -15 -16 -6 6 9 36 18 36 5 0 4
-9 -3 -20z m172 -19 c0 -24 -4 -28 -27 -27 -30 1 -39 26 -13 33 13 4 13 3 0
-6 -18 -13 -7 -26 16 -17 11 4 15 14 12 31 -3 13 -1 22 3 19 5 -3 9 -18 9 -33z
m-130 -16 c-14 -17 -36 -20 -44 -6 -4 5 3 7 15 4 15 -4 22 0 26 18 4 13 8 18
11 11 2 -7 -2 -19 -8 -27z m-8754 -293 c32 -21 17 -72 -21 -72 -18 0 -25 -5
-25 -20 0 -11 -4 -20 -10 -20 -6 0 -10 27 -10 60 0 59 1 60 28 60 15 0 32 -4
38 -8z m856 -44 c3 -50 5 -53 33 -59 27 -6 26 -7 -12 -8 l-43 -1 0 60 c0 74
18 80 22 8z m358 -8 c0 -33 -4 -60 -10 -60 -6 0 -10 27 -10 60 0 33 4 60 10
60 6 0 10 -27 10 -60z m128 48 c18 -18 15 -33 -13 -67 l-26 -30 28 -4 c20 -3
15 -4 -15 -6 l-43 -1 23 31 c41 55 42 58 35 66 -4 4 -17 1 -28 -6 -25 -15 -37
-7 -19 14 15 18 41 20 58 3z m7114 -5 c35 -31 16 -103 -27 -103 -42 0 -61 66
-28 102 20 22 31 23 55 1z m107 -49 c-10 -37 -21 -69 -24 -72 -14 -14 -13 10
1 59 22 77 22 79 32 79 5 0 1 -30 -9 -66z m111 6 c0 -33 -4 -60 -10 -60 -5 0
-10 20 -10 45 0 35 -3 43 -15 39 -21 -8 -19 13 3 25 29 17 32 13 32 -49z m92
43 c35 -31 16 -103 -27 -103 -42 0 -61 66 -28 102 20 22 31 23 55 1z m100 0
c35 -31 16 -103 -27 -103 -42 0 -61 66 -28 102 20 22 31 23 55 1z m107 -5 l13
-21 18 24 c24 31 37 18 15 -15 -16 -24 -16 -28 0 -52 21 -33 9 -46 -14 -15
l-18 24 -16 -24 c-22 -31 -33 -17 -12 15 16 24 16 28 1 51 -18 27 -20 35 -8
35 4 0 13 -10 21 -22z m151 8 c20 -26 8 -61 -22 -64 -20 -2 -28 -9 -28 -23 0
-10 -4 -19 -10 -19 -6 0 -10 27 -10 60 0 59 0 60 29 60 16 0 34 -7 41 -14z
m-8448 -34 c-15 -5 -16 -44 0 -60 9 -9 8 -12 -5 -12 -13 0 -17 9 -17 34 0 19
-5 36 -12 38 -9 3 -8 8 2 20 13 13 16 13 30 0 11 -12 12 -16 2 -20z m-592 8
c0 -4 -7 -10 -15 -14 -9 -3 -15 -18 -15 -36 0 -16 -4 -30 -10 -30 -5 0 -10 20
-10 44 0 40 2 44 25 44 14 0 25 -4 25 -8z m78 -2 c7 -7 12 -22 12 -34 0 -51
-72 -61 -78 -11 -6 47 36 75 66 45z m102 -42 c0 -59 -16 -82 -50 -71 -29 9
-25 27 5 19 15 -4 25 -2 25 5 0 6 -8 11 -18 11 -24 0 -42 19 -42 45 0 29 19
45 52 45 27 0 28 -2 28 -54z m70 44 c0 -4 -7 -10 -15 -14 -9 -3 -15 -18 -15
-36 0 -16 -4 -30 -10 -30 -5 0 -10 20 -10 44 0 40 2 44 25 44 14 0 25 -4 25
-8z m74 -6 c25 -24 19 -34 -20 -34 -32 0 -35 -2 -24 -15 8 -10 21 -13 33 -9
13 4 17 2 13 -5 -19 -29 -76 -1 -76 38 0 14 29 41 45 41 7 0 21 -7 29 -16z
m83 -1 c3 -7 -3 -9 -16 -6 -12 3 -21 1 -21 -5 0 -6 10 -12 23 -14 14 -2 22
-10 22 -23 0 -15 -8 -21 -32 -23 -26 -3 -33 1 -33 14 0 13 3 14 15 4 8 -6 19
-8 26 -4 8 5 3 12 -15 21 -25 13 -33 32 -19 47 11 10 46 3 50 -11z m91 -1 c3
-9 -3 -11 -22 -6 -34 8 -34 -4 0 -16 29 -11 30 -43 1 -48 -25 -5 -50 6 -42 18
5 8 11 7 21 -1 8 -6 18 -8 22 -4 4 4 2 10 -4 12 -6 2 -20 10 -30 17 -16 12
-16 16 -4 30 15 19 51 18 58 -2z m181 4 c7 -8 11 -27 9 -43 -2 -23 -9 -29 -32
-31 -31 -4 -46 10 -46 44 0 40 45 59 69 30z m229 2 c22 -22 13 -38 -19 -38
-20 0 -29 -4 -26 -12 2 -7 16 -12 31 -10 18 2 25 -1 21 -7 -10 -17 -62 -13
-69 5 -15 39 1 74 34 74 9 0 21 -5 28 -12z m48 -20 l7 -33 15 33 c13 27 32 43
32 27 0 -16 -34 -85 -42 -85 -9 0 -38 60 -38 80 0 24 19 7 26 -22z m128 16
c25 -24 19 -34 -20 -34 -32 0 -35 -2 -24 -15 8 -10 21 -13 33 -9 13 4 17 2 13
-5 -19 -29 -76 -1 -76 38 0 14 29 41 45 41 7 0 21 -7 29 -16z m7951 -249 c14
-13 25 -34 25 -45 0 -11 -11 -32 -25 -45 l-24 -25 -4561 0 -4561 0 -24 25
c-14 13 -25 34 -25 45 0 12 11 32 25 45 l24 25 4561 0 4561 0 24 -25z m-6891
-537 c36 -51 9 -128 -44 -128 -35 0 -60 31 -60 75 0 44 25 75 60 75 18 0 34
-8 44 -22z m4700 0 c36 -51 9 -128 -44 -128 -35 0 -60 31 -60 75 0 44 25 75
60 75 18 0 34 -8 44 -22z m-5016 -255 c-10 -2 -28 -2 -40 0 -13 2 -5 4 17 4
22 1 32 -1 23 -4z m313 -20 c-8 -15 -10 -15 -11 -2 0 17 10 32 18 25 2 -3 -1
-13 -7 -23z m56 5 c-3 -8 -6 -5 -6 6 -1 11 2 17 5 13 3 -3 4 -12 1 -19z m206
-21 c19 16 20 16 8 0 -12 -15 -11 -20 5 -40 19 -22 19 -22 -2 -4 -11 9 -23 17
-27 17 -3 0 -8 -8 -10 -17 -3 -10 -4 7 -4 37 0 33 2 42 4 22 4 -34 5 -34 26
-15z m4105 36 c-14 -3 -18 -16 -20 -51 l-2 -47 -3 47 c-3 33 -9 48 -21 51 -9
3 1 5 23 5 22 0 32 -2 23 -5z m39 -70 c-2 -16 -4 -3 -4 27 0 30 2 43 4 28 2
-16 2 -40 0 -55z m237 61 c4 -9 4 -19 1 -22 -3 -3 -6 1 -7 9 0 8 -4 -6 -8 -31
l-7 -45 -1 53 c-2 51 9 69 22 36z m76 -36 c0 -28 -2 -49 -4 -47 -8 9 -13 99
-5 99 5 0 9 -23 9 -52z m237 -25 c-2 -16 -4 -3 -4 27 0 30 2 43 4 28 2 -16 2
-40 0 -55z m-35 15 c2 -21 1 -38 -3 -38 -8 0 -16 63 -10 81 5 17 8 7 13 -43z
m-5142 -3 c0 -19 -2 -35 -4 -35 -2 0 -6 16 -8 35 -2 19 0 35 4 35 4 0 8 -16 8
-35z m237 13 c-3 -8 -6 -5 -6 6 -1 11 2 17 5 13 3 -3 4 -12 1 -19z m113 -4 c0
-8 -10 -14 -26 -14 -15 0 -23 -4 -18 -11 3 -6 15 -8 27 -5 15 4 17 2 8 -7 -14
-14 -44 2 -49 25 -2 12 4 14 24 10 23 -4 26 -2 21 12 -4 10 -3 15 3 11 6 -3
10 -13 10 -21z m80 0 c0 -8 -10 -14 -26 -14 -15 0 -23 -4 -18 -11 3 -6 15 -8
27 -5 15 4 17 2 8 -7 -14 -14 -44 2 -49 25 -2 12 4 14 24 10 23 -4 26 -2 21
12 -4 10 -3 15 3 11 6 -3 10 -13 10 -21z m4248 -20 c-3 -27 -4 -26 -9 8 -3 22
-1 34 4 29 5 -5 7 -21 5 -37z m29 -6 c-2 -13 -4 -5 -4 17 -1 22 1 32 4 23 2
-10 2 -28 0 -40z m38 41 c-4 -6 2 -13 14 -16 12 -3 21 -12 21 -19 0 -19 -28
-30 -42 -16 -8 8 -5 9 11 5 27 -7 28 13 1 22 -20 6 -25 16 -13 28 10 11 15 8
8 -4z m166 -16 c-12 -20 -14 -14 -5 12 4 9 9 14 11 11 3 -2 0 -13 -6 -23z
m109 17 c0 -5 -2 -10 -4 -10 -3 0 -8 5 -11 10 -3 6 -1 10 4 10 6 0 11 -4 11
-10z m50 6 c0 -3 -4 -8 -10 -11 -5 -3 -10 -1 -10 4 0 6 5 11 10 11 6 0 10 -2
10 -4z m30 -6 c0 -5 -2 -10 -4 -10 -3 0 -8 5 -11 10 -3 6 -1 10 4 10 6 0 11
-4 11 -10z m128 -36 c-3 -27 -4 -26 -9 8 -3 22 -1 34 4 29 5 -5 7 -21 5 -37z
m-4961 14 c-3 -8 -6 -5 -6 6 -1 11 2 17 5 13 3 -3 4 -12 1 -19z m-162 -19 c0
-8 -10 -15 -23 -15 -18 -1 -19 -1 -2 3 23 5 27 23 6 23 -8 0 -18 4 -21 10 -4
6 2 7 17 1 13 -4 23 -15 23 -22z m4794 -14 c0 -5 -6 -1 -14 9 -8 11 -15 24
-15 30 0 5 7 1 15 -10 8 -10 14 -23 14 -29z m103 8 c16 5 18 3 9 -6 -15 -15
-45 3 -48 29 -2 14 0 12 7 -5 8 -17 16 -22 32 -18z m-4802 -6 c0 -5 -4 -5 -10
-2 -5 3 -10 14 -10 23 0 15 2 15 10 2 5 -8 10 -19 10 -23z m60 2 c0 -5 -4 -9
-10 -9 -5 0 -10 7 -10 16 0 8 5 12 10 9 6 -3 10 -10 10 -16z m9900 -30 c61
-27 134 -101 161 -163 30 -70 30 -172 0 -241 -29 -65 -101 -138 -165 -166 -38
-16 -71 -22 -126 -22 -95 0 -159 26 -223 91 -121 124 -123 308 -4 430 94 98
233 125 357 71z m-9482 -906 c5 -17 -26 -29 -40 -15 -6 6 -7 15 -3 22 9 14 37
9 43 -7z m6 -130 l46 -38 0 -67 0 -68 -32 -1 c-95 -3 -152 2 -160 13 -4 7 -8
36 -8 64 0 50 2 54 48 93 26 22 50 40 53 41 3 0 27 -17 53 -37z m912 5 c49
-23 58 -100 18 -147 -21 -26 -33 -31 -69 -31 -74 0 -119 68 -89 138 22 54 79
70 140 40z m2848 -7 c23 -25 13 -59 -20 -67 -30 -8 -54 11 -54 42 0 22 22 43
46 44 6 0 19 -9 28 -19z m-933 -58 c-4 -29 -6 -32 -9 -14 -4 23 -4 23 -38 -10
l-34 -33 -25 24 -25 24 -35 -34 c-41 -40 -48 -29 -8 12 31 32 49 35 75 11 17
-15 20 -15 49 13 l30 29 -23 6 c-19 6 -16 7 12 8 36 1 36 1 31 -36z m969 -69
c12 -31 12 -34 1 -34 -5 0 -11 10 -13 23 -3 19 -10 22 -55 25 -48 3 -52 1 -61
-25 -8 -22 -11 -24 -11 -7 -1 32 19 44 76 44 48 0 54 -3 63 -26z m-3985 -204
c17 0 25 7 28 23 2 12 4 -3 4 -33 0 -30 -2 -43 -4 -27 -3 21 -10 27 -28 27
-18 0 -25 -6 -28 -27 -2 -16 -4 -3 -4 27 0 30 2 45 4 33 3 -16 11 -23 28 -23z
m109 2 c3 -5 -5 -8 -17 -8 -16 1 -22 -5 -22 -19 0 -14 6 -20 22 -19 12 0 20
-3 17 -8 -17 -27 -59 9 -49 42 6 20 39 28 49 12z m82 -33 c2 -31 1 -31 -3 -4
-3 16 -10 34 -16 38 -8 6 -7 7 3 4 9 -2 16 -17 16 -38z m44 31 c0 -5 -7 -7
-15 -4 -8 4 -15 8 -15 10 0 2 7 4 15 4 8 0 15 -4 15 -10z m80 3 c0 -5 -11 -8
-24 -8 -13 0 -22 3 -19 8 2 4 13 7 24 7 10 0 19 -3 19 -7z m-163 -50 c-3 -10
-5 -2 -5 17 0 19 2 27 5 18 2 -10 2 -26 0 -35z m156 20 c-7 -2 -21 -2 -30 0
-10 3 -4 5 12 5 17 0 24 -2 18 -5z m0 -25 c-6 -10 -30 -10 -36 0 -3 4 5 7 18
7 13 0 21 -3 18 -7z"/>
<path d="M4770 10795 l0 -75 34 0 c41 0 66 28 66 75 0 47 -25 75 -66 75 l-34
0 0 -75z"/>
<path d="M5626 10805 c-31 -32 -10 -101 29 -94 24 5 36 50 21 80 -14 29 -30
34 -50 14z"/>
<path d="M6377 10808 c-22 -12 -23 -71 -1 -89 31 -26 63 15 50 66 -7 27 -26
36 -49 23z"/>
<path d="M3701 10741 c-15 -9 -9 -41 8 -41 12 0 41 29 41 41 0 11 -31 12 -49
0z"/>
<path d="M4401 10741 c-15 -9 -9 -41 8 -41 12 0 41 29 41 41 0 11 -31 12 -49
0z"/>
<path d="M5013 10743 c-18 -7 -16 -32 2 -39 18 -7 45 12 45 32 0 14 -23 17
-47 7z"/>
<path d="M5832 10808 c-24 -24 -12 -98 17 -98 40 0 56 63 25 94 -19 19 -26 20
-42 4z"/>
<path d="M6041 10741 c-15 -9 -9 -41 8 -41 12 0 41 29 41 41 0 11 -31 12 -49
0z"/>
<path d="M11777 10652 c-45 -46 -47 -62 -6 -62 30 0 31 -2 26 -30 -8 -39 1
-38 46 8 45 46 47 62 6 62 -29 0 -30 2 -24 30 9 40 -3 38 -48 -8z m64 -34 l31
-3 -32 -30 c-27 -26 -31 -27 -28 -10 2 16 -3 21 -31 23 l-33 3 28 31 c27 27
29 28 32 9 2 -14 12 -21 33 -23z"/>
<path d="M12016 10623 c-18 -53 -20 -77 -5 -50 13 22 55 22 63 1 4 -9 9 -14
12 -11 9 9 -30 107 -42 107 -7 0 -19 -21 -28 -47z m43 -10 c1 -7 -6 -13 -14
-13 -16 0 -19 17 -8 46 6 16 7 16 14 -2 4 -10 8 -25 8 -31z"/>
<path d="M12170 10649 c0 -18 -2 -19 -15 -9 -23 19 -47 -6 -43 -44 3 -27 7
-31 36 -32 l32 -1 0 54 c0 29 -2 53 -5 53 -3 0 -5 -10 -5 -21z m-5 -49 c0 -31
-31 -39 -40 -11 -8 26 2 43 23 39 11 -2 17 -13 17 -28z"/>
<path d="M12730 10649 c0 -18 -2 -19 -15 -9 -23 19 -47 -6 -43 -44 3 -27 7
-31 36 -32 l32 -1 0 54 c0 29 -2 53 -5 53 -3 0 -5 -10 -5 -21z m-5 -49 c0 -31
-31 -39 -40 -11 -8 26 2 43 23 39 11 -2 17 -13 17 -28z"/>
<path d="M12310 10639 c-12 -8 -10 -9 9 -7 31 4 40 -19 9 -24 -35 -5 -31 -43
5 -44 25 -1 27 2 27 36 0 25 -5 40 -16 44 -19 7 -16 8 -34 -5z m40 -49 c0 -12
-28 -25 -36 -17 -9 9 6 27 22 27 8 0 14 -5 14 -10z"/>
<path d="M12413 10642 c-20 -3 -23 -9 -22 -45 l2 -42 6 35 c4 26 11 35 26 35
15 0 22 -9 26 -35 l6 -35 2 41 c1 44 -7 53 -46 46z"/>
<path d="M12496 10634 c-19 -19 -20 -35 -3 -58 15 -21 48 -18 55 4 4 13 3 13
-11 2 -21 -18 -37 -7 -37 25 0 22 4 25 25 21 28 -6 34 6 9 16 -21 8 -20 8 -38
-10z"/>
<path d="M12591 10636 c-18 -22 -10 -70 13 -74 10 -2 22 0 27 5 6 6 1 9 -12 9
-12 -1 -24 5 -26 12 -3 8 6 12 26 12 34 0 39 11 15 34 -19 20 -28 20 -43 2z
m30 -24 c-28 -4 -40 6 -21 18 9 6 20 4 29 -3 12 -10 11 -13 -8 -15z"/>
<path d="M12210 10635 c0 -11 29 -75 34 -75 8 0 37 72 32 78 -3 2 -11 -11 -19
-29 l-13 -34 -12 33 c-9 28 -22 43 -22 27z"/>
<path d="M15560 10750 c0 -13 7 -20 20 -20 13 0 20 7 20 20 0 13 -7 20 -20 20
-13 0 -20 -7 -20 -20z"/>
<path d="M10992 10631 c2 -29 -1 -36 -20 -40 -21 -6 -22 -7 -7 -28 20 -28 46
-29 69 -4 21 24 15 49 -20 82 l-26 24 4 -34z"/>
<path d="M11217 10654 c-13 -13 -7 -61 8 -74 22 -19 37 0 33 41 -3 32 -24 49
-41 33z"/>
<path d="M10103 10633 c-22 -8 -14 -23 12 -23 14 0 25 4 25 9 0 11 -21 19 -37
14z"/>
<path d="M5982 10371 c-21 -13 -11 -66 12 -66 26 0 44 30 30 52 -13 21 -25 25
-42 14z"/>
<path d="M3333 10333 c-7 -2 -13 -11 -13 -20 0 -21 44 -13 48 10 3 17 -10 21
-35 10z"/>
<path d="M3782 10368 c-26 -26 0 -77 33 -64 20 7 20 62 -1 70 -20 8 -18 8 -32
-6z"/>
<path d="M4372 10368 c-26 -26 0 -77 33 -64 20 7 20 62 -1 70 -20 8 -18 8 -32
-6z"/>
<path d="M4643 10373 c-24 -9 -13 -23 18 -23 27 0 30 2 19 15 -13 16 -17 17
-37 8z"/>
<path d="M4847 10373 c-15 -14 -6 -23 24 -23 27 0 30 2 19 15 -13 16 -32 19
-43 8z"/>
<path d="M5052 10368 c-26 -26 0 -77 33 -64 20 7 20 62 -1 70 -20 8 -18 8 -32
-6z"/>
<path d="M5163 10373 c-24 -9 -13 -23 18 -23 27 0 30 2 19 15 -13 16 -17 17
-37 8z"/>
<path d="M5467 10373 c-15 -14 -6 -23 24 -23 27 0 30 2 19 15 -13 16 -32 19
-43 8z"/>
<path d="M5770 10330 c-11 -7 -12 -12 -3 -21 15 -15 43 -5 43 16 0 17 -18 19
-40 5z"/>
<path d="M6243 10333 c-7 -2 -13 -11 -13 -20 0 -21 44 -13 48 10 3 17 -10 21
-35 10z"/>
<path d="M6593 10373 c-18 -7 -16 -48 2 -63 30 -25 61 30 33 58 -13 13 -16 13
-35 5z"/>
<path d="M6960 10366 c-6 -8 -10 -25 -8 -38 2 -17 10 -23 28 -23 18 0 26 6 28
23 3 22 -13 52 -28 52 -4 0 -13 -7 -20 -14z"/>
<path d="M7073 10333 c-7 -2 -13 -11 -13 -20 0 -21 44 -13 48 10 3 17 -10 21
-35 10z"/>
<path d="M11365 9662 c-51 -10 -80 -72 -59 -127 8 -19 55 -45 84 -45 30 0 80
53 80 85 0 53 -54 98 -105 87z m60 -42 c52 -57 -18 -137 -78 -89 -32 25 -35
61 -7 89 25 25 62 26 85 0z"/>
<path d="M11350 9610 c-24 -24 -24 -29 -4 -58 27 -39 84 -23 84 23 0 23 -28
55 -48 55 -7 0 -21 -9 -32 -20z m55 -35 c0 -30 -39 -27 -43 3 -3 20 0 23 20
20 15 -2 23 -10 23 -23z"/>
<path d="M11375 9580 c-3 -5 -1 -10 4 -10 6 0 11 5 11 10 0 6 -2 10 -4 10 -3
0 -8 -4 -11 -10z"/>
<path d="M3900 9640 c0 -6 28 -10 65 -10 37 0 65 4 65 10 0 6 -28 10 -65 10
-37 0 -65 -4 -65 -10z"/>
<path d="M3900 9555 l0 -55 75 0 c58 0 75 3 75 14 0 8 -10 16 -22 18 -33 4
-35 35 -4 49 44 20 29 29 -49 29 l-75 0 0 -55z"/>
<path d="M4025 9560 c-3 -5 3 -10 14 -10 12 0 21 5 21 10 0 6 -6 10 -14 10 -8
0 -18 -4 -21 -10z"/>
<path d="M6187 9634 c-4 -4 -7 -13 -7 -21 0 -10 21 -13 86 -13 76 0 85 2 82
18 -3 14 -16 17 -79 20 -41 1 -78 0 -82 -4z"/>
<path d="M6180 9555 l0 -35 85 0 85 0 0 35 0 35 -85 0 -85 0 0 -35z"/>
<path d="M4210 9600 c-14 -26 3 -60 30 -60 24 0 38 44 20 65 -17 21 -37 19
-50 -5z"/>
<path d="M9077 9606 c-11 -29 -8 -46 8 -46 16 0 18 14 6 44 -7 18 -8 18 -14 2z"/>
<path d="M4415 9580 c-3 -5 3 -10 14 -10 12 0 21 5 21 10 0 6 -6 10 -14 10 -8
0 -18 -4 -21 -10z"/>
<path d="M4705 9580 c-3 -5 3 -10 15 -10 12 0 18 5 15 10 -3 6 -10 10 -15 10
-5 0 -12 -4 -15 -10z"/>
<path d="M6645 9550 c-8 -12 20 -24 35 -15 5 3 10 10 10 16 0 12 -37 12 -45
-1z"/>
<path d="M6920 9544 c0 -9 7 -14 17 -12 25 5 28 28 4 28 -12 0 -21 -6 -21 -16z"/>
<path d="M7199 9584 c-9 -11 -10 -20 -2 -32 16 -25 38 -20 41 9 4 31 -20 45
-39 23z"/>
<path d="M9260 9544 c0 -9 7 -14 17 -12 25 5 28 28 4 28 -12 0 -21 -6 -21 -16z"/>
<path d="M11742 9591 c-19 -11 -11 -55 10 -59 22 -4 35 36 17 54 -9 8 -19 10
-27 5z"/>
<path d="M11825 9550 c-8 -12 20 -24 35 -15 5 3 10 10 10 16 0 12 -37 12 -45
-1z"/>
<path d="M3550 8565 c0 -12 14 -15 65 -15 51 0 65 3 65 15 0 12 -14 15 -65 15
-51 0 -65 -3 -65 -15z"/>
<path d="M3542 8483 l3 -58 78 -3 c61 -2 77 0 77 11 0 8 -9 17 -20 20 -12 3
-20 14 -20 26 0 14 6 21 20 21 13 0 20 7 20 20 0 18 -7 20 -80 20 l-81 0 3
-57z"/>
<path d="M3673 8478 c2 -7 10 -13 17 -13 7 0 15 6 18 13 2 7 -5 12 -18 12 -13
0 -20 -5 -17 -12z"/>
<path d="M4432 8523 c2 -10 12 -18 23 -18 11 0 21 8 23 18 3 13 -3 17 -23 17
-20 0 -26 -4 -23 -17z"/>
<path d="M4432 8473 c2 -10 12 -18 23 -18 11 0 21 8 23 18 3 13 -3 17 -23 17
-20 0 -26 -4 -23 -17z"/>
<path d="M4110 8505 c-16 -19 -3 -57 18 -53 22 4 28 53 8 61 -8 3 -20 0 -26
-8z"/>
<path d="M4255 8470 c-8 -12 20 -24 35 -15 5 3 10 10 10 16 0 12 -37 12 -45
-1z"/>
<path d="M4530 8464 c0 -9 7 -14 17 -12 25 5 28 28 4 28 -12 0 -21 -6 -21 -16z"/>
<path d="M4660 8464 c0 -9 7 -14 17 -12 25 5 28 28 4 28 -12 0 -21 -6 -21 -16z"/>
<path d="M4950 8510 c-19 -12 -7 -22 21 -18 19 2 20 5 8 15 -9 7 -20 9 -29 3z"/>
<path d="M3483 7963 c-17 -6 -16 -28 2 -43 13 -11 15 -8 15 19 0 17 -1 31 -2
30 -2 0 -9 -3 -15 -6z"/>
<path d="M3520 7830 c0 -33 11 -38 30 -15 10 12 10 18 0 30 -19 23 -30 18 -30
-15z"/>
<path d="M3700 7951 c-5 -11 -10 -41 -10 -66 0 -59 14 -85 45 -85 31 0 45 26
45 85 0 59 -14 85 -45 85 -14 0 -29 -8 -35 -19z"/>
<path d="M4016 7948 c-18 -25 -21 -84 -6 -122 7 -18 17 -26 34 -26 32 0 46 26
46 85 0 25 -5 55 -10 66 -14 26 -45 24 -64 -3z"/>
<path d="M4239 7948 c-17 -30 -16 -112 0 -132 36 -43 81 -3 81 72 0 70 -55
109 -81 60z"/>
<path d="M3950 7470 c0 -19 3 -21 12 -12 9 9 9 15 0 24 -9 9 -12 7 -12 -12z"/>
<path d="M3707 7474 c-11 -11 -8 -72 3 -79 19 -12 41 17 38 49 -3 29 -25 46
-41 30z"/>
<path d="M3847 7474 c-13 -13 -7 -61 8 -74 22 -19 37 0 33 41 -3 32 -24 49
-41 33z"/>
<path d="M4225 7410 c-8 -12 20 -24 35 -15 5 3 10 10 10 16 0 12 -37 12 -45
-1z"/>
<path d="M4540 7426 c0 -28 24 -41 40 -21 16 20 5 45 -20 45 -14 0 -20 -7 -20
-24z"/>
<path d="M4825 7410 c-8 -12 20 -24 35 -15 5 3 10 10 10 16 0 12 -37 12 -45
-1z"/>
<path d="M4980 7450 c-19 -12 -7 -22 21 -18 19 2 20 5 8 15 -9 7 -20 9 -29 3z"/>
<path d="M4027 7414 c-8 -8 1 -24 14 -24 5 0 9 7 9 15 0 15 -12 20 -23 9z"/>
<path d="M4362 6481 c-19 -11 -11 -55 10 -59 22 -4 35 36 17 54 -9 8 -19 10
-27 5z"/>
<path d="M4603 6483 c-20 -7 -15 -23 7 -23 11 0 20 4 20 9 0 13 -12 19 -27 14z"/>
<path d="M6734 6466 c-9 -24 4 -48 23 -44 12 2 18 12 18 28 0 29 -32 41 -41
16z"/>
<path d="M6840 6480 c-19 -12 -7 -22 21 -18 19 2 20 5 8 15 -9 7 -20 9 -29 3z"/>
<path d="M7110 6474 c-10 -12 -8 -14 14 -14 28 0 35 14 12 23 -8 3 -20 -1 -26
-9z"/>
<path d="M9420 6474 c-10 -12 -8 -14 14 -14 28 0 35 14 12 23 -8 3 -20 -1 -26
-9z"/>
<path d="M11740 6434 c0 -9 7 -14 17 -12 25 5 28 28 4 28 -12 0 -21 -6 -21
-16z"/>
<path d="M12060 6456 c0 -32 20 -44 36 -22 16 23 7 46 -17 46 -13 0 -19 -7
-19 -24z"/>
<path d="M3960 6140 c0 -11 5 -20 10 -20 6 0 10 9 10 20 0 11 -4 20 -10 20 -5
0 -10 -9 -10 -20z"/>
<path d="M3990 6065 c0 -17 5 -25 13 -22 6 2 12 12 12 22 0 10 -6 20 -12 23
-8 2 -13 -6 -13 -23z"/>
<path d="M4104 6136 c-16 -63 21 -122 52 -82 17 24 18 78 2 94 -20 20 -47 14
-54 -12z"/>
<path d="M4314 6136 c-16 -63 21 -122 52 -82 27 38 11 106 -26 106 -12 0 -22
-9 -26 -24z"/>
<path d="M4464 6136 c-16 -63 21 -122 52 -82 27 38 11 106 -26 106 -12 0 -22
-9 -26 -24z"/>
<path d="M9210 6140 c-15 -27 -4 -89 16 -97 27 -10 45 17 42 66 -3 39 -7 47
-25 49 -14 2 -26 -4 -33 -18z"/>
<path d="M9420 6140 c-15 -27 -4 -89 16 -97 27 -10 45 17 42 66 -3 39 -7 47
-25 49 -14 2 -26 -4 -33 -18z"/>
<path d="M9564 6136 c-16 -63 21 -122 52 -82 17 24 18 78 2 94 -20 20 -47 14
-54 -12z"/>
<path d="M3470 4792 c0 -41 14 -62 41 -62 28 0 49 29 49 66 0 34 0 34 -45 34
l-45 0 0 -38z"/>
<path d="M3430 4800 c0 -5 5 -10 10 -10 6 0 10 5 10 10 0 6 -4 10 -10 10 -5 0
-10 -4 -10 -10z"/>
<path d="M3580 4800 c0 -5 5 -10 10 -10 6 0 10 5 10 10 0 6 -4 10 -10 10 -5 0
-10 -4 -10 -10z"/>
<path d="M3500 4695 c0 -8 -4 -15 -10 -15 -5 0 -10 -4 -10 -10 0 -5 16 -10 35
-10 l36 0 -18 25 c-21 28 -33 32 -33 10z"/>
<path d="M3780 4784 c0 -33 2 -35 28 -32 49 6 40 67 -10 68 -14 0 -18 -8 -18
-36z"/>
<path d="M4964 4809 c-10 -17 13 -36 27 -22 12 12 4 33 -11 33 -5 0 -12 -5
-16 -11z"/>
<path d="M4954 4717 c-8 -22 3 -37 27 -37 24 0 24 12 -1 35 -17 16 -20 16 -26
2z"/>
<path d="M5222 4771 c-14 -39 -12 -44 16 -39 17 3 18 6 7 38 l-12 34 -11 -33z"/>
<path d="M4040 4749 c-9 -16 -9 -28 -1 -45 15 -33 49 -31 57 3 13 49 -34 84
-56 42z"/>
<path d="M4202 4758 c-17 -17 -15 -53 3 -68 31 -26 60 13 44 58 -9 24 -29 28
-47 10z"/>
<path d="M4457 4764 c-15 -15 -6 -24 24 -24 20 0 29 4 27 13 -5 14 -40 21 -51
11z"/>
<path d="M5757 4763 c-15 -14 -6 -23 23 -23 22 0 28 4 24 15 -6 15 -35 20 -47
8z"/>
<path d="M6050 4755 c-11 -13 -7 -15 25 -15 32 0 36 2 25 15 -7 8 -18 15 -25
15 -7 0 -18 -7 -25 -15z"/>
<path d="M6447 4763 c-15 -14 -6 -23 23 -23 22 0 28 4 24 15 -6 15 -35 20 -47
8z"/>
<path d="M3575 4400 c-8 -12 20 -24 35 -15 5 3 10 10 10 16 0 12 -37 12 -45
-1z"/>
<path d="M4455 4400 c-8 -12 20 -24 35 -15 5 3 10 10 10 16 0 12 -37 12 -45
-1z"/>
<path d="M5545 4400 c-8 -12 20 -24 35 -15 5 3 10 10 10 16 0 12 -37 12 -45
-1z"/>
<path d="M6913 4443 c-22 -8 -14 -23 12 -23 14 0 25 4 25 9 0 11 -21 19 -37
14z"/>
<path d="M4280 3840 c0 -13 7 -20 20 -20 13 0 20 7 20 20 0 13 -7 20 -20 20
-13 0 -20 -7 -20 -20z"/>
<path d="M10941 3839 c-10 -28 -6 -39 15 -39 11 0 13 7 8 28 -9 37 -12 39 -23
11z"/>
<path d="M4440 3806 c0 -31 14 -40 30 -21 15 18 6 45 -15 45 -9 0 -15 -9 -15
-24z"/>
<path d="M4534 3815 c-7 -18 3 -35 22 -35 8 0 14 10 14 25 0 27 -27 35 -36 10z"/>
<path d="M4695 3820 c-3 -5 3 -10 15 -10 12 0 18 5 15 10 -3 6 -10 10 -15 10
-5 0 -12 -4 -15 -10z"/>
<path d="M6685 3789 c-4 -6 -4 -13 -1 -16 8 -8 36 5 36 17 0 13 -27 13 -35 -1z"/>
<path d="M6860 3824 c-10 -12 -8 -14 14 -14 28 0 35 14 12 23 -8 3 -20 -1 -26
-9z"/>
<path d="M7040 3806 c0 -32 18 -43 37 -23 20 20 10 47 -17 47 -15 0 -20 -7
-20 -24z"/>
<path d="M7150 3830 c-19 -12 -7 -22 21 -18 19 2 20 5 8 15 -9 7 -20 9 -29 3z"/>
<path d="M9110 3824 c-10 -12 -8 -14 14 -14 28 0 35 14 12 23 -8 3 -20 -1 -26
-9z"/>
<path d="M9195 3790 c-8 -12 20 -24 35 -15 5 3 10 10 10 16 0 12 -37 12 -45
-1z"/>
<path d="M11273 3833 c-20 -7 -15 -23 7 -23 11 0 20 4 20 9 0 13 -12 19 -27
14z"/>
<path d="M11440 3824 c-10 -12 -8 -14 14 -14 28 0 35 14 12 23 -8 3 -20 -1
-26 -9z"/>
<path d="M11680 3830 c-19 -12 -7 -22 21 -18 19 2 20 5 8 15 -9 7 -20 9 -29 3z"/>
<path d="M12499 3266 c-25 -54 17 -132 48 -90 14 19 17 71 7 98 -9 24 -43 19
-55 -8z"/>
<path d="M3540 3250 c0 -5 9 -10 21 -10 11 0 17 5 14 10 -3 6 -13 10 -21 10
-8 0 -14 -4 -14 -10z"/>
<path d="M3750 3250 c0 -5 7 -10 15 -10 8 0 15 5 15 10 0 6 -7 10 -15 10 -8 0
-15 -4 -15 -10z"/>
<path d="M3430 3040 c0 -21 8 -24 34 -14 25 10 19 34 -9 34 -18 0 -25 -5 -25
-20z"/>
<path d="M3430 2989 c0 -15 5 -20 22 -17 34 5 37 38 4 38 -20 0 -26 -5 -26
-21z"/>
<path d="M3537 3033 c-14 -13 -6 -23 19 -23 22 0 25 2 14 15 -14 16 -23 19
-33 8z"/>
<path d="M3430 2600 c0 -13 7 -20 18 -20 24 0 32 8 25 26 -8 22 -43 17 -43 -6z"/>
<path d="M11884 2593 c-7 -27 6 -59 22 -56 30 5 29 83 -1 83 -8 0 -18 -12 -21
-27z"/>
<path d="M12194 2593 c-7 -27 6 -59 22 -56 30 5 29 83 -1 83 -8 0 -18 -12 -21
-27z"/>
<path d="M12294 2593 c-7 -27 6 -59 22 -56 30 5 29 83 -1 83 -8 0 -18 -12 -21
-27z"/>
<path d="M12550 2600 c0 -13 7 -20 20 -20 13 0 20 7 20 20 0 13 -7 20 -20 20
-13 0 -20 -7 -20 -20z"/>
<path d="M3587 2576 c-8 -21 19 -54 33 -40 7 7 10 20 8 30 -4 23 -33 30 -41
10z"/>
<path d="M3687 2583 c-15 -15 -7 -43 13 -43 15 0 20 7 20 25 0 24 -18 34 -33
18z"/>
<path d="M3835 2580 c-4 -6 5 -10 20 -10 15 0 24 4 20 10 -3 6 -12 10 -20 10
-8 0 -17 -4 -20 -10z"/>
<path d="M4192 2563 c2 -17 9 -28 18 -28 9 0 16 11 18 28 3 22 -1 27 -18 27
-17 0 -21 -5 -18 -27z"/>
<path d="M4420 2580 c0 -5 9 -10 20 -10 11 0 20 5 20 10 0 6 -9 10 -20 10 -11
0 -20 -4 -20 -10z"/>
<path d="M4595 2580 c-4 -6 5 -10 20 -10 15 0 24 4 20 10 -3 6 -12 10 -20 10
-8 0 -17 -4 -20 -10z"/>
<path d="M5651 1800 c-18 -11 -20 -75 -2 -92 10 -11 15 -9 27 6 27 37 7 107
-25 86z"/>
<path d="M10351 1800 c-18 -11 -20 -75 -2 -92 10 -11 15 -9 27 6 27 37 7 107
-25 86z"/>
<path d="M15459 1204 c-16 -17 -24 -38 -25 -67 -1 -23 -3 -49 -5 -57 -3 -9 2
-14 11 -11 8 2 34 3 58 2 95 -3 128 103 45 147 -34 18 -57 14 -84 -14z m88
-16 c13 -12 23 -29 23 -38 0 -29 -42 -58 -80 -57 -33 1 -35 2 -35 38 0 39 27
79 53 79 9 0 26 -10 39 -22z"/>
<path d="M6067 389 c-35 -29 -37 -33 -37 -90 0 -57 1 -60 23 -57 18 2 23 10
25 46 3 41 4 42 38 42 34 0 34 0 34 -45 0 -41 2 -45 25 -45 24 0 25 3 25 58 0
54 -2 59 -40 90 -21 17 -42 32 -47 32 -5 0 -25 -14 -46 -31z"/>
<path d="M6090 280 c0 -36 3 -40 25 -40 23 0 25 4 25 40 0 36 -2 40 -25 40
-22 0 -25 -4 -25 -40z"/>
<path d="M7005 412 c-35 -7 -65 -43 -65 -78 0 -46 9 -63 41 -79 40 -21 63 -19
98 11 67 56 13 164 -74 146z m55 -40 c26 -21 30 -67 9 -87 -26 -25 -55 -26
-82 -4 -33 25 -35 61 -5 89 27 25 49 25 78 2z"/>
<path d="M6986 357 c-20 -30 -10 -66 22 -74 50 -12 81 39 46 78 -23 25 -50 24
-68 -4z m59 -32 c0 -30 -39 -27 -43 3 -3 20 0 23 20 20 15 -2 23 -10 23 -23z"/>
<path d="M7015 330 c-3 -5 -1 -10 4 -10 6 0 11 5 11 10 0 6 -2 10 -4 10 -3 0
-8 -4 -11 -10z"/>
<path d="M9873 395 c-14 -11 -16 -18 -7 -32 17 -28 48 -23 52 8 4 32 -18 43
-45 24z"/>
<path d="M7849 391 c-50 -51 -36 -137 28 -170 81 -42 177 45 144 131 -28 73
-117 93 -172 39z m126 -16 c50 -49 18 -135 -51 -135 -75 0 -108 87 -50 136 35
31 70 30 101 -1z"/>
<path d="M7910 351 c0 -11 -9 -21 -21 -24 -23 -6 -17 -27 7 -27 8 0 14 -7 14
-15 0 -8 7 -15 15 -15 8 0 15 7 15 15 0 8 7 15 15 15 8 0 15 7 15 15 0 8 -6
15 -14 15 -7 0 -16 9 -19 20 -7 25 -27 26 -27 1z"/>
</g>
</svg>
